<svg width="67" height="68" viewBox="0 0 67 68" fill="none" xmlns="http://www.w3.org/2000/svg">
<rect x="1.51953" y="0.873535" width="30.7164" height="30.7164" fill="#292B2F"/>
<path d="M29.9457 16.2297C29.9457 23.4527 24.0904 29.308 16.8674 29.308C9.64443 29.308 3.78906 23.4527 3.78906 16.2297C3.78906 9.00674 9.64443 3.15137 16.8674 3.15137C24.0904 3.15137 29.9457 9.00674 29.9457 16.2297Z" stroke="#AFB7C7" stroke-width="2" stroke-linecap="round"/>
<path d="M12.3867 17.51L15.5863 20.7096L22.6255 13.6704" stroke="#AFB7C7" stroke-width="2" stroke-linecap="round" stroke-linejoin="round"/>
<path d="M14.0966 50.9506V62.5869H12.3352V52.7119H12.267L9.48295 54.5301V52.8483L12.3864 50.9506H14.0966ZM17.2443 62.5869V61.3142L21.1818 57.2346C21.6023 56.7915 21.9489 56.4032 22.2216 56.0699C22.4981 55.7327 22.7045 55.4127 22.8409 55.1096C22.9773 54.8066 23.0455 54.4846 23.0455 54.1437C23.0455 53.7574 22.9545 53.424 22.7727 53.1437C22.5909 52.8596 22.3428 52.6418 22.0284 52.4903C21.714 52.335 21.3598 52.2574 20.9659 52.2574C20.5492 52.2574 20.1856 52.3426 19.875 52.5131C19.5644 52.6835 19.3258 52.924 19.1591 53.2346C18.9924 53.5452 18.9091 53.9089 18.9091 54.3256H17.233C17.233 53.6172 17.3958 52.9979 17.7216 52.4676C18.0473 51.9373 18.4943 51.5263 19.0625 51.2346C19.6307 50.9392 20.2765 50.7915 21 50.7915C21.7311 50.7915 22.375 50.9373 22.9318 51.229C23.4924 51.5168 23.9299 51.9108 24.2443 52.4108C24.5587 52.907 24.7159 53.4676 24.7159 54.0926C24.7159 54.5244 24.6345 54.9468 24.4716 55.3596C24.3125 55.7725 24.0341 56.2327 23.6364 56.7403C23.2386 57.2441 22.6856 57.8559 21.9773 58.5756L19.6648 60.996V61.0812H24.9034V62.5869H17.2443Z" fill="#AFB7C7"/>
<path d="M53.7763 10.6356V22.272H52.0149V12.397H51.9467L49.1626 14.2152V12.5333L52.0661 10.6356H53.7763ZM56.924 22.272V20.9992L60.8615 16.9197C61.282 16.4765 61.6286 16.0883 61.9013 15.7549C62.1778 15.4178 62.3842 15.0977 62.5206 14.7947C62.657 14.4917 62.7251 14.1697 62.7251 13.8288C62.7251 13.4424 62.6342 13.1091 62.4524 12.8288C62.2706 12.5447 62.0225 12.3269 61.7081 12.1754C61.3937 12.0201 61.0395 11.9424 60.6456 11.9424C60.2289 11.9424 59.8653 12.0277 59.5547 12.1981C59.2441 12.3686 59.0054 12.6091 58.8388 12.9197C58.6721 13.2303 58.5888 13.5939 58.5888 14.0106H56.9126C56.9126 13.3023 57.0755 12.683 57.4013 12.1527C57.727 11.6224 58.174 11.2114 58.7422 10.9197C59.3104 10.6242 59.9562 10.4765 60.6797 10.4765C61.4107 10.4765 62.0547 10.6224 62.6115 10.914C63.1721 11.2019 63.6096 11.5958 63.924 12.0958C64.2384 12.592 64.3956 13.1527 64.3956 13.7777C64.3956 14.2095 64.3142 14.6318 64.1513 15.0447C63.9922 15.4576 63.7138 15.9178 63.3161 16.4254C62.9183 16.9292 62.3653 17.5409 61.657 18.2606L59.3445 20.6811V20.7663H64.5831V22.272H56.924Z" fill="#AFB7C7"/>
<path d="M1.51953 39.5894H31.596" stroke="#AFB7C7" stroke-width="2"/>
<path d="M1.83984 42.4692L1.83984 36.7099" stroke="#AFB7C7" stroke-width="2"/>
<path d="M31.9102 42.4692V36.7099" stroke="#AFB7C7" stroke-width="2"/>
<path d="M40.2383 31.5898V1.51341" stroke="#AFB7C7" stroke-width="2"/>
<path d="M43.1094 31.27H37.3501" stroke="#AFB7C7" stroke-width="2"/>
<path d="M43.1094 1.19385L37.3501 1.19385" stroke="#AFB7C7" stroke-width="2"/>
</svg>
