<svg width="87" height="89" viewBox="0 0 87 89" fill="none" xmlns="http://www.w3.org/2000/svg">
<path d="M23.0604 71.9501V83.5864H21.2991V73.7114H21.2309L18.4468 75.5296V73.8478L21.3502 71.9501H23.0604ZM30.2707 83.7455C29.7517 83.7379 29.2403 83.6432 28.7366 83.4614C28.2366 83.2796 27.782 82.9766 27.3729 82.5523C26.9638 82.1281 26.6362 81.558 26.39 80.8421C26.1475 80.1262 26.0263 79.2323 26.0263 78.1603C26.0263 77.1451 26.1267 76.2436 26.3275 75.4557C26.532 74.6679 26.8256 74.0031 27.2082 73.4614C27.5907 72.916 28.0529 72.5012 28.5945 72.2171C29.1362 71.933 29.7441 71.791 30.4184 71.791C31.1116 71.791 31.7271 71.9273 32.265 72.2001C32.8029 72.4728 33.2385 72.8497 33.5718 73.3307C33.9089 73.8118 34.1229 74.3592 34.2138 74.9728H32.4809C32.3635 74.4879 32.1305 74.0921 31.782 73.7853C31.4335 73.4785 30.979 73.3251 30.4184 73.3251C29.5661 73.3251 28.9013 73.6963 28.4241 74.4387C27.9506 75.1811 27.7119 76.2133 27.7082 77.5353H27.7934C27.9941 77.2057 28.2404 76.9254 28.532 76.6944C28.8275 76.4595 29.157 76.2796 29.5207 76.1546C29.8881 76.0258 30.2744 75.9614 30.6797 75.9614C31.354 75.9614 31.9638 76.1262 32.5093 76.4557C33.0585 76.7815 33.496 77.2323 33.8218 77.808C34.1475 78.3838 34.3104 79.0429 34.3104 79.7853C34.3104 80.5277 34.1419 81.2001 33.8047 81.8023C33.4714 82.4046 33.0017 82.8819 32.3957 83.2342C31.7896 83.5826 31.0813 83.7531 30.2707 83.7455ZM30.265 82.2682C30.7119 82.2682 31.1116 82.1584 31.4638 81.9387C31.8161 81.719 32.0945 81.4235 32.2991 81.0523C32.5036 80.6811 32.6059 80.2663 32.6059 79.808C32.6059 79.361 32.5055 78.9538 32.3047 78.5864C32.1078 78.219 31.835 77.9273 31.4866 77.7114C31.1419 77.4955 30.7479 77.3876 30.3047 77.3876C29.9676 77.3876 29.6551 77.452 29.3672 77.5807C29.0832 77.7095 28.8332 77.8876 28.6172 78.1148C28.4013 78.3421 28.2309 78.6035 28.1059 78.8989C27.9847 79.1906 27.9241 79.4993 27.9241 79.8251C27.9241 80.2607 28.0244 80.6641 28.2252 81.0353C28.4297 81.4065 28.7082 81.7057 29.0604 81.933C29.4165 82.1565 29.818 82.2682 30.265 82.2682Z" fill="#AFB7C7"/>
<rect x="0.769531" y="1.39551" width="51.1939" height="51.1939" fill="#292B2F"/>
<path d="M49.1733 26.9919C49.1733 39.5935 38.9577 49.809 26.3562 49.809C13.7546 49.809 3.53906 39.5935 3.53906 26.9919C3.53906 14.3904 13.7546 4.1748 26.3562 4.1748C38.9577 4.1748 49.1733 14.3904 49.1733 26.9919Z" stroke="#AFB7C7" stroke-width="3" stroke-linecap="round"/>
<path d="M18.6172 29.2032L24.1438 34.7298L36.3024 22.5713" stroke="#AFB7C7" stroke-width="3" stroke-linecap="round" stroke-linejoin="round"/>
<path d="M73.4872 21.3964V33.0327H71.7259V23.1577H71.6577L68.8736 24.9759V23.2941L71.777 21.3964H73.4872ZM80.6974 33.1918C80.1785 33.1842 79.6671 33.0895 79.1634 32.9077C78.6634 32.7259 78.2088 32.4229 77.7997 31.9986C77.3906 31.5744 77.063 31.0043 76.8168 30.2884C76.5743 29.5725 76.4531 28.6785 76.4531 27.6066C76.4531 26.5914 76.5535 25.6899 76.7543 24.902C76.9588 24.1142 77.2524 23.4494 77.6349 22.9077C78.0175 22.3623 78.4796 21.9475 79.0213 21.6634C79.563 21.3793 80.1709 21.2373 80.8452 21.2373C81.5384 21.2373 82.1539 21.3736 82.6918 21.6464C83.2296 21.9191 83.6652 22.296 83.9986 22.777C84.3357 23.2581 84.5497 23.8054 84.6406 24.4191H82.9077C82.7902 23.9342 82.5573 23.5384 82.2088 23.2316C81.8603 22.9248 81.4058 22.7714 80.8452 22.7714C79.9929 22.7714 79.3281 23.1426 78.8509 23.885C78.3774 24.6274 78.1387 25.6596 78.1349 26.9816H78.2202C78.4209 26.652 78.6671 26.3717 78.9588 26.1407C79.2543 25.9058 79.5838 25.7259 79.9474 25.6009C80.3149 25.4721 80.7012 25.4077 81.1065 25.4077C81.7808 25.4077 82.3906 25.5725 82.9361 25.902C83.4853 26.2278 83.9228 26.6785 84.2486 27.2543C84.5743 27.8301 84.7372 28.4892 84.7372 29.2316C84.7372 29.974 84.5687 30.6464 84.2315 31.2486C83.8982 31.8509 83.4285 32.3282 82.8224 32.6804C82.2164 33.0289 81.508 33.1994 80.6974 33.1918ZM80.6918 31.7145C81.1387 31.7145 81.5384 31.6047 81.8906 31.385C82.2429 31.1653 82.5213 30.8698 82.7259 30.4986C82.9304 30.1274 83.0327 29.7126 83.0327 29.2543C83.0327 28.8073 82.9323 28.4001 82.7315 28.0327C82.5346 27.6653 82.2618 27.3736 81.9134 27.1577C81.5687 26.9418 81.1747 26.8339 80.7315 26.8339C80.3944 26.8339 80.0819 26.8982 79.794 27.027C79.5099 27.1558 79.2599 27.3339 79.044 27.5611C78.8281 27.7884 78.6577 28.0498 78.5327 28.3452C78.4115 28.6369 78.3509 28.9456 78.3509 29.2714C78.3509 29.707 78.4512 30.1104 78.652 30.4816C78.8565 30.8528 79.1349 31.152 79.4872 31.3793C79.8433 31.6028 80.2448 31.7145 80.6918 31.7145Z" fill="#AFB7C7"/>
<path d="M0.769531 60.5889H51.7412" stroke="#AFB7C7" stroke-width="2"/>
<path d="M1.31641 63.4688L1.31641 57.7094" stroke="#AFB7C7" stroke-width="2"/>
<path d="M52.2891 63.4688V57.7094" stroke="#AFB7C7" stroke-width="2"/>
<path d="M59.9609 53.0688V2.0972" stroke="#AFB7C7" stroke-width="2"/>
<path d="M62.832 52.5264H57.0727" stroke="#AFB7C7" stroke-width="2"/>
<path d="M62.832 1.55469L57.0727 1.55469" stroke="#AFB7C7" stroke-width="2"/>
</svg>
