<svg width="102" height="100" viewBox="0 0 102 100" fill="none" xmlns="http://www.w3.org/2000/svg">
<path d="M23.4982 95.9692V94.6965L27.4357 90.617C27.8562 90.1738 28.2028 89.7855 28.4755 89.4522C28.752 89.1151 28.9585 88.795 29.0948 88.492C29.2312 88.1889 29.2994 87.867 29.2994 87.5261C29.2994 87.1397 29.2085 86.8064 29.0266 86.5261C28.8448 86.242 28.5967 86.0242 28.2823 85.8726C27.9679 85.7173 27.6138 85.6397 27.2198 85.6397C26.8031 85.6397 26.4395 85.7249 26.1289 85.8954C25.8183 86.0658 25.5797 86.3064 25.413 86.617C25.2463 86.9276 25.163 87.2912 25.163 87.7079H23.4869C23.4869 86.9995 23.6497 86.3802 23.9755 85.8499C24.3013 85.3196 24.7482 84.9086 25.3164 84.617C25.8846 84.3215 26.5304 84.1738 27.2539 84.1738C27.985 84.1738 28.6289 84.3196 29.1857 84.6113C29.7463 84.8992 30.1838 85.2931 30.4982 85.7931C30.8126 86.2893 30.9698 86.8499 30.9698 87.4749C30.9698 87.9067 30.8884 88.3291 30.7255 88.742C30.5664 89.1548 30.288 89.6151 29.8903 90.1226C29.4925 90.6264 28.9395 91.2382 28.2312 91.9579L25.9187 94.3783V94.4636H31.1573V95.9692H23.4982ZM37.3619 96.1624C36.4641 96.1586 35.6971 95.9219 35.0607 95.4522C34.4244 94.9825 33.9376 94.2988 33.6005 93.4011C33.2634 92.5033 33.0948 91.4219 33.0948 90.1567C33.0948 88.8954 33.2634 87.8177 33.6005 86.9238C33.9414 86.0298 34.43 85.348 35.0664 84.8783C35.7066 84.4086 36.4717 84.1738 37.3619 84.1738C38.252 84.1738 39.0153 84.4105 39.6516 84.884C40.288 85.3537 40.7747 86.0355 41.1119 86.9295C41.4528 87.8196 41.6232 88.8954 41.6232 90.1567C41.6232 91.4257 41.4547 92.509 41.1175 93.4067C40.7804 94.3007 40.2937 94.9844 39.6573 95.4579C39.021 95.9276 38.2558 96.1624 37.3619 96.1624ZM37.3619 94.6454C38.1497 94.6454 38.7653 94.2609 39.2085 93.492C39.6554 92.723 39.8789 91.6113 39.8789 90.1567C39.8789 89.1908 39.7766 88.3745 39.5721 87.7079C39.3713 87.0374 39.0816 86.5298 38.7028 86.1851C38.3278 85.8367 37.8808 85.6624 37.3619 85.6624C36.5778 85.6624 35.9622 86.0488 35.5153 86.8215C35.0683 87.5942 34.8429 88.706 34.8391 90.1567C34.8391 91.1264 34.9395 91.9465 35.1403 92.617C35.3448 93.2836 35.6346 93.7893 36.0096 94.134C36.3846 94.4749 36.8353 94.6454 37.3619 94.6454Z" fill="#AFB7C7"/>
<rect x="0.480469" y="0.978516" width="63.9924" height="63.9924" fill="#292B2F"/>
<path d="M61.7023 32.9751C61.7023 49.1109 48.6216 62.1915 32.4859 62.1915C16.3501 62.1915 3.26953 49.1109 3.26953 32.9751C3.26953 16.8394 16.3501 3.75879 32.4859 3.75879C48.6216 3.75879 61.7023 16.8394 61.7023 32.9751Z" stroke="#AFB7C7" stroke-width="3" stroke-linecap="round"/>
<path d="M22.7109 35.7673L29.6919 42.7483L45.0501 27.3901" stroke="#AFB7C7" stroke-width="3" stroke-linecap="round" stroke-linejoin="round"/>
<path d="M81.5998 39.0156V37.7429L85.5373 33.6634C85.9577 33.2202 86.3043 32.8319 86.5771 32.4986C86.8536 32.1615 87.06 31.8414 87.1964 31.5384C87.3327 31.2353 87.4009 30.9134 87.4009 30.5724C87.4009 30.1861 87.31 29.8527 87.1282 29.5724C86.9464 29.2884 86.6983 29.0705 86.3839 28.919C86.0695 28.7637 85.7153 28.6861 85.3214 28.6861C84.9047 28.6861 84.5411 28.7713 84.2305 28.9418C83.9199 29.1122 83.6812 29.3527 83.5146 29.6634C83.3479 29.974 83.2646 30.3376 83.2646 30.7543H81.5884C81.5884 30.0459 81.7513 29.4266 82.0771 28.8963C82.4028 28.366 82.8498 27.955 83.418 27.6634C83.9862 27.3679 84.632 27.2202 85.3555 27.2202C86.0865 27.2202 86.7305 27.366 87.2873 27.6577C87.8479 27.9455 88.2854 28.3395 88.5998 28.8395C88.9142 29.3357 89.0714 29.8963 89.0714 30.5213C89.0714 30.9531 88.9899 31.3755 88.8271 31.7884C88.668 32.2012 88.3896 32.6615 87.9918 33.169C87.5941 33.6728 87.0411 34.2846 86.3327 35.0043L84.0202 37.4247V37.5099H89.2589V39.0156H81.5998ZM95.4634 39.2088C94.5657 39.205 93.7987 38.9683 93.1623 38.4986C92.5259 38.0289 92.0392 37.3452 91.7021 36.4474C91.3649 35.5497 91.1964 34.4683 91.1964 33.2031C91.1964 31.9418 91.3649 30.8641 91.7021 29.9702C92.043 29.0762 92.5316 28.3944 93.168 27.9247C93.8081 27.455 94.5733 27.2202 95.4634 27.2202C96.3536 27.2202 97.1168 27.4569 97.7532 27.9304C98.3896 28.4001 98.8763 29.0819 99.2134 29.9759C99.5543 30.866 99.7248 31.9418 99.7248 33.2031C99.7248 34.4721 99.5562 35.5554 99.2191 36.4531C98.882 37.3471 98.3952 38.0308 97.7589 38.5043C97.1225 38.974 96.3574 39.2088 95.4634 39.2088ZM95.4634 37.6918C96.2513 37.6918 96.8668 37.3073 97.31 36.5384C97.757 35.7694 97.9805 34.6577 97.9805 33.2031C97.9805 32.2372 97.8782 31.4209 97.6737 30.7543C97.4729 30.0838 97.1831 29.5762 96.8043 29.2315C96.4293 28.883 95.9824 28.7088 95.4634 28.7088C94.6793 28.7088 94.0638 29.0952 93.6168 29.8679C93.1699 30.6406 92.9445 31.7524 92.9407 33.2031C92.9407 34.1728 93.0411 34.9929 93.2418 35.6634C93.4464 36.33 93.7362 36.8357 94.1112 37.1804C94.4862 37.5213 94.9369 37.6918 95.4634 37.6918Z" fill="#AFB7C7"/>
<path d="M0.480469 72.9697H64.1159" stroke="#AFB7C7" stroke-width="2"/>
<path d="M1.15625 75.8491L1.15625 70.0898" stroke="#AFB7C7" stroke-width="2"/>
<path d="M64.7969 75.8491V70.0898" stroke="#AFB7C7" stroke-width="2"/>
<path d="M72.4688 65.4517V1.81626" stroke="#AFB7C7" stroke-width="2"/>
<path d="M75.3398 64.7754H69.5805" stroke="#AFB7C7" stroke-width="2"/>
<path d="M75.3398 1.14014L69.5805 1.14014" stroke="#AFB7C7" stroke-width="2"/>
</svg>
