<svg width="115" height="114" viewBox="0 0 115 114" fill="none" xmlns="http://www.w3.org/2000/svg">
<path d="M30.1096 108.587V107.314L34.0471 103.235C34.4675 102.791 34.8141 102.403 35.0868 102.07C35.3634 101.733 35.5698 101.413 35.7062 101.11C35.8425 100.807 35.9107 100.485 35.9107 100.144C35.9107 99.7574 35.8198 99.424 35.638 99.1437C35.4562 98.8596 35.208 98.6418 34.8937 98.4903C34.5793 98.335 34.2251 98.2574 33.8312 98.2574C33.4145 98.2574 33.0509 98.3426 32.7402 98.5131C32.4296 98.6835 32.191 98.924 32.0243 99.2346C31.8577 99.5452 31.7743 99.9089 31.7743 100.326H30.0982C30.0982 99.6172 30.2611 98.9979 30.5868 98.4676C30.9126 97.9373 31.3596 97.5263 31.9277 97.2346C32.4959 96.9392 33.1418 96.7915 33.8652 96.7915C34.5963 96.7915 35.2402 96.9373 35.7971 97.229C36.3577 97.5168 36.7952 97.9108 37.1096 98.4108C37.424 98.907 37.5812 99.4676 37.5812 100.093C37.5812 100.524 37.4997 100.947 37.3368 101.36C37.1777 101.773 36.8993 102.233 36.5016 102.74C36.1039 103.244 35.5509 103.856 34.8425 104.576L32.53 106.996V107.081H37.7687V108.587H30.1096ZM39.4277 106.314V104.894L44.4562 96.9506H45.5755V99.0415H44.8652L41.2687 104.735V104.826H48.1607V106.314H39.4277ZM44.9448 108.587V105.882L44.9562 105.235V96.9506H46.6209V108.587H44.9448Z" fill="#AFB7C7"/>
<rect x="0.484375" y="0.797852" width="76.7909" height="76.7909" fill="#292B2F"/>
<path d="M74.5007 39.1928C74.5007 58.8627 58.5551 74.8084 38.8851 74.8084C19.2152 74.8084 3.26953 58.8627 3.26953 39.1928C3.26953 19.5228 19.2152 3.57715 38.8851 3.57715C58.5551 3.57715 74.5007 19.5228 74.5007 39.1928Z" stroke="#AFB7C7" stroke-width="3" stroke-linecap="round"/>
<path d="M27.0742 42.5658L35.5096 51.0012L54.0674 32.4434" stroke="#AFB7C7" stroke-width="3" stroke-linecap="round" stroke-linejoin="round"/>
<path d="M94.3928 45.2349V43.9621L98.3303 39.8826C98.7507 39.4394 99.0973 39.0512 99.37 38.7178C99.6465 38.3807 99.853 38.0606 99.9893 37.7576C100.126 37.4546 100.194 37.1326 100.194 36.7917C100.194 36.4053 100.103 36.072 99.9212 35.7917C99.7393 35.5076 99.4912 35.2898 99.1768 35.1383C98.8625 34.983 98.5083 34.9053 98.1143 34.9053C97.6977 34.9053 97.334 34.9905 97.0234 35.161C96.7128 35.3315 96.4742 35.572 96.3075 35.8826C96.1409 36.1932 96.0575 36.5568 96.0575 36.9735H94.3814C94.3814 36.2652 94.5443 35.6458 94.87 35.1155C95.1958 34.5852 95.6428 34.1743 96.2109 33.8826C96.7791 33.5871 97.425 33.4394 98.1484 33.4394C98.8795 33.4394 99.5234 33.5852 100.08 33.8769C100.641 34.1648 101.078 34.5587 101.393 35.0587C101.707 35.5549 101.864 36.1155 101.864 36.7405C101.864 37.1724 101.783 37.5947 101.62 38.0076C101.461 38.4205 101.183 38.8807 100.785 39.3883C100.387 39.8921 99.834 40.5038 99.1257 41.2235L96.8132 43.644V43.7292H102.052V45.2349H94.3928ZM103.711 42.9621V41.5417L108.739 33.5985H109.859V35.6894H109.148L105.552 41.3826V41.4735H112.444V42.9621H103.711ZM109.228 45.2349V42.5303L109.239 41.8826V33.5985H110.904V45.2349H109.228Z" fill="#AFB7C7"/>
<path d="M1.12891 85.5879H77.4281" stroke="#AFB7C7" stroke-width="2"/>
<path d="M1.29688 88.4673L1.29688 82.708" stroke="#AFB7C7" stroke-width="2"/>
<path d="M77.5977 88.4673V82.708" stroke="#AFB7C7" stroke-width="2"/>
<path d="M85.2734 78.7085V2.40933" stroke="#AFB7C7" stroke-width="2"/>
<path d="M88.1445 78.5361H82.3852" stroke="#AFB7C7" stroke-width="2"/>
<path d="M88.1445 2.2373L82.3852 2.2373" stroke="#AFB7C7" stroke-width="2"/>
</svg>
