<svg width="128" height="127" viewBox="0 0 128 127" fill="none" xmlns="http://www.w3.org/2000/svg">
<path d="M36.6603 121.587V120.314L40.5978 116.235C41.0183 115.791 41.3649 115.403 41.6376 115.07C41.9141 114.733 42.1206 114.413 42.2569 114.11C42.3933 113.807 42.4615 113.485 42.4615 113.144C42.4615 112.757 42.3706 112.424 42.1888 112.144C42.0069 111.86 41.7588 111.642 41.4444 111.49C41.13 111.335 40.7759 111.257 40.3819 111.257C39.9653 111.257 39.6016 111.343 39.291 111.513C38.9804 111.684 38.7418 111.924 38.5751 112.235C38.4085 112.545 38.3251 112.909 38.3251 113.326H36.649C36.649 112.617 36.8119 111.998 37.1376 111.468C37.4634 110.937 37.9103 110.526 38.4785 110.235C39.0467 109.939 39.6925 109.791 40.416 109.791C41.1471 109.791 41.791 109.937 42.3478 110.229C42.9085 110.517 43.346 110.911 43.6603 111.411C43.9747 111.907 44.1319 112.468 44.1319 113.093C44.1319 113.524 44.0505 113.947 43.8876 114.36C43.7285 114.773 43.4501 115.233 43.0524 115.74C42.6547 116.244 42.1016 116.856 41.3933 117.576L39.0808 119.996V120.081H44.3194V121.587H36.6603ZM50.4047 121.746C49.5903 121.746 48.8706 121.606 48.2456 121.326C47.6244 121.045 47.1376 120.659 46.7853 120.166C46.4331 119.674 46.2588 119.113 46.2626 118.485C46.2588 117.992 46.3592 117.54 46.5638 117.127C46.7721 116.71 47.0543 116.363 47.4103 116.087C47.7664 115.807 48.1641 115.629 48.6035 115.553V115.485C48.024 115.344 47.56 115.034 47.2115 114.553C46.863 114.072 46.6906 113.519 46.6944 112.894C46.6906 112.299 46.8478 111.769 47.166 111.303C47.488 110.833 47.9293 110.464 48.4899 110.195C49.0505 109.926 49.6888 109.791 50.4047 109.791C51.113 109.791 51.7456 109.928 52.3024 110.201C52.863 110.469 53.3043 110.839 53.6263 111.309C53.9482 111.774 54.1111 112.303 54.1149 112.894C54.1111 113.519 53.9331 114.072 53.5808 114.553C53.2285 115.034 52.7702 115.344 52.2058 115.485V115.553C52.6414 115.629 53.0335 115.807 53.3819 116.087C53.7342 116.363 54.0145 116.71 54.2228 117.127C54.435 117.54 54.5429 117.992 54.5467 118.485C54.5429 119.113 54.3649 119.674 54.0126 120.166C53.6603 120.659 53.1717 121.045 52.5467 121.326C51.9255 121.606 51.2115 121.746 50.4047 121.746ZM50.4047 120.309C50.8857 120.309 51.3024 120.229 51.6547 120.07C52.0069 119.907 52.2797 119.682 52.4728 119.394C52.666 119.102 52.7645 118.761 52.7683 118.371C52.7645 117.966 52.6585 117.608 52.4501 117.297C52.2456 116.987 51.9672 116.742 51.6149 116.564C51.2626 116.386 50.8592 116.297 50.4047 116.297C49.9463 116.297 49.5391 116.386 49.1831 116.564C48.827 116.742 48.5467 116.987 48.3422 117.297C48.1376 117.608 48.0372 117.966 48.041 118.371C48.0372 118.761 48.13 119.102 48.3194 119.394C48.5126 119.682 48.7872 119.907 49.1433 120.07C49.4994 120.229 49.9198 120.309 50.4047 120.309ZM50.4047 114.894C50.791 114.894 51.1338 114.816 51.4331 114.661C51.7323 114.505 51.9672 114.29 52.1376 114.013C52.3119 113.737 52.4009 113.413 52.4047 113.041C52.4009 112.678 52.3138 112.36 52.1433 112.087C51.9766 111.814 51.7437 111.604 51.4444 111.456C51.1452 111.305 50.7986 111.229 50.4047 111.229C50.0031 111.229 49.6509 111.305 49.3478 111.456C49.0486 111.604 48.8156 111.814 48.649 112.087C48.4823 112.36 48.4009 112.678 48.4047 113.041C48.4009 113.413 48.4842 113.737 48.6547 114.013C48.8251 114.29 49.06 114.505 49.3592 114.661C49.6622 114.816 50.0107 114.894 50.4047 114.894Z" fill="#AFB7C7"/>
<rect x="0.582031" y="1" width="89.5894" height="89.5894" fill="#292B2F"/>
<path d="M86.8851 45.7951C86.8851 68.7231 68.2983 87.31 45.3703 87.31C22.4423 87.31 3.85547 68.7231 3.85547 45.7951C3.85547 22.8671 22.4423 4.28027 45.3703 4.28027C68.2983 4.28027 86.8851 22.8671 86.8851 45.7951Z" stroke="#AFB7C7" stroke-width="4" stroke-linecap="round"/>
<path d="M31.5195 49.751L41.4093 59.6407L63.1667 37.8833" stroke="#AFB7C7" stroke-width="4" stroke-linecap="round" stroke-linejoin="round"/>
<path d="M107.291 51.8354V50.5627L111.229 46.4832C111.649 46.04 111.996 45.6517 112.268 45.3184C112.545 44.9813 112.751 44.6612 112.888 44.3582C113.024 44.0551 113.092 43.7332 113.092 43.3923C113.092 43.0059 113.001 42.6726 112.82 42.3923C112.638 42.1082 112.39 41.8904 112.075 41.7389C111.761 41.5836 111.407 41.5059 111.013 41.5059C110.596 41.5059 110.232 41.5911 109.922 41.7616C109.611 41.932 109.373 42.1726 109.206 42.4832C109.039 42.7938 108.956 43.1574 108.956 43.5741H107.28C107.28 42.8658 107.443 42.2464 107.768 41.7161C108.094 41.1858 108.541 40.7748 109.109 40.4832C109.678 40.1877 110.323 40.04 111.047 40.04C111.778 40.04 112.422 40.1858 112.979 40.4775C113.539 40.7654 113.977 41.1593 114.291 41.6593C114.606 42.1555 114.763 42.7161 114.763 43.3411C114.763 43.7729 114.681 44.1953 114.518 44.6082C114.359 45.0211 114.081 45.4813 113.683 45.9889C113.286 46.4926 112.732 47.1044 112.024 47.8241L109.712 50.2445V50.3298H114.95V51.8354H107.291ZM121.036 51.9945C120.221 51.9945 119.501 51.8544 118.876 51.5741C118.255 51.2938 117.768 50.9074 117.416 50.415C117.064 49.9226 116.89 49.362 116.893 48.7332C116.89 48.2408 116.99 47.7881 117.195 47.3752C117.403 46.9586 117.685 46.612 118.041 46.3354C118.397 46.0551 118.795 45.8771 119.234 45.8014V45.7332C118.655 45.593 118.191 45.2824 117.842 44.8014C117.494 44.3203 117.321 43.7673 117.325 43.1423C117.321 42.5476 117.479 42.0173 117.797 41.5514C118.119 41.0817 118.56 40.7123 119.121 40.4434C119.681 40.1745 120.32 40.04 121.036 40.04C121.744 40.04 122.376 40.1764 122.933 40.4491C123.494 40.718 123.935 41.0873 124.257 41.557C124.579 42.0229 124.742 42.5514 124.746 43.1423C124.742 43.7673 124.564 44.3203 124.212 44.8014C123.859 45.2824 123.401 45.593 122.837 45.7332V45.8014C123.272 45.8771 123.664 46.0551 124.013 46.3354C124.365 46.612 124.645 46.9586 124.854 47.3752C125.066 47.7881 125.174 48.2408 125.178 48.7332C125.174 49.362 124.996 49.9226 124.643 50.415C124.291 50.9074 123.803 51.2938 123.178 51.5741C122.556 51.8544 121.842 51.9945 121.036 51.9945ZM121.036 50.557C121.517 50.557 121.933 50.4775 122.286 50.3184C122.638 50.1555 122.911 49.9301 123.104 49.6423C123.297 49.3506 123.395 49.0097 123.399 48.6195C123.395 48.2142 123.289 47.8563 123.081 47.5457C122.876 47.2351 122.598 46.9908 122.246 46.8127C121.893 46.6347 121.49 46.5457 121.036 46.5457C120.577 46.5457 120.17 46.6347 119.814 46.8127C119.458 46.9908 119.178 47.2351 118.973 47.5457C118.768 47.8563 118.668 48.2142 118.672 48.6195C118.668 49.0097 118.761 49.3506 118.95 49.6423C119.143 49.9301 119.418 50.1555 119.774 50.3184C120.13 50.4775 120.551 50.557 121.036 50.557ZM121.036 45.1423C121.422 45.1423 121.765 45.0646 122.064 44.9093C122.363 44.754 122.598 44.5381 122.768 44.2616C122.943 43.9851 123.032 43.6612 123.036 43.29C123.032 42.9264 122.945 42.6082 122.774 42.3354C122.607 42.0627 122.375 41.8525 122.075 41.7048C121.776 41.5533 121.429 41.4775 121.036 41.4775C120.634 41.4775 120.282 41.5533 119.979 41.7048C119.679 41.8525 119.446 42.0627 119.28 42.3354C119.113 42.6082 119.032 42.9264 119.036 43.29C119.032 43.6612 119.115 43.9851 119.286 44.2616C119.456 44.5381 119.691 44.754 119.99 44.9093C120.293 45.0646 120.642 45.1423 121.036 45.1423Z" fill="#AFB7C7"/>
<path d="M1.22656 98.5879H90.1895" stroke="#AFB7C7" stroke-width="2"/>
<path d="M1.54688 101.467L1.54688 95.708" stroke="#AFB7C7" stroke-width="2"/>
<path d="M90.4922 101.467V95.708" stroke="#AFB7C7" stroke-width="2"/>
<path d="M98.1758 90.5894V1.62641" stroke="#AFB7C7" stroke-width="2"/>
<path d="M101.047 90.2837H95.2876" stroke="#AFB7C7" stroke-width="2"/>
<path d="M101.047 1.3208L95.2876 1.3208" stroke="#AFB7C7" stroke-width="2"/>
</svg>
