<svg width="40" height="40" viewBox="0 0 40 40" fill="none" xmlns="http://www.w3.org/2000/svg">
<rect x="0.5" y="0.5" width="39" height="39" rx="19.5" stroke="#AFB7C7"/>
<path fill-rule="evenodd" clip-rule="evenodd" d="M19.9919 4H19.9999H20.0079C20.2325 4 20.3529 4 20.456 4.00135C28.9932 4.11308 35.8868 11.0067 35.9985 19.5439C35.9999 19.647 35.9999 19.7676 35.9999 19.9924V19.9999V20.0075C35.9999 20.2323 35.9999 20.3528 35.9985 20.456C35.8868 28.9932 28.9932 35.8868 20.456 35.9985C20.3528 35.9999 20.2323 35.9999 20.0075 35.9999H19.9999H19.9924C19.7676 35.9999 19.647 35.9999 19.5439 35.9985C11.0067 35.8868 4.11308 28.9932 4.00135 20.456C4 20.3529 4 20.2325 4 20.0079V19.9999V19.9919C4 19.7674 4 19.647 4.00135 19.5439C4.11308 11.0067 11.0067 4.11308 19.5439 4.00135C19.647 4 19.7674 4 19.9919 4ZM12.3776 17.7124C13.6357 17.7124 14.6649 18.7417 14.6649 19.9997C14.6649 21.2577 13.6357 22.287 12.3776 22.287C11.1196 22.287 10.0903 21.2577 10.0903 19.9997C10.0903 18.7417 11.1196 17.7124 12.3776 17.7124ZM17.7121 19.9997C17.7121 21.2577 18.7413 22.287 19.9994 22.287C21.2574 22.287 22.2867 21.2577 22.2867 19.9997C22.2867 18.7417 21.2574 17.7124 19.9994 17.7124C18.7413 17.7124 17.7121 18.7417 17.7121 19.9997ZM27.625 22.287C26.367 22.287 25.3377 21.2577 25.3377 19.9997C25.3377 18.7417 26.367 17.7124 27.625 17.7124C28.883 17.7124 29.9123 18.7417 29.9123 19.9997C29.9123 21.2577 28.883 22.287 27.625 22.287Z" fill="#717D91"/>
</svg>
