<svg width="40" height="40" viewBox="0 0 40 40" fill="none" xmlns="http://www.w3.org/2000/svg">
<path fill-rule="evenodd" clip-rule="evenodd" d="M20 0C8.95429 0 0 8.95429 0 20C0 31.0457 8.95429 40 20 40C31.0457 40 40 31.0457 40 20C40 8.95429 31.0457 0 20 0ZM10.3714 28.3413C10.3714 26.0855 10.3714 24.9577 10.8133 24.0973C11.1952 23.3538 11.8004 22.7486 12.544 22.3667C13.4043 21.9248 14.5322 21.9248 16.7879 21.9248H23.2043C25.4601 21.9248 26.5879 21.9248 27.4482 22.3667C28.1918 22.7486 28.797 23.3538 29.1789 24.0973C29.6208 24.9577 29.6208 26.0855 29.6208 28.3413V28.3413C29.6208 29.4691 29.6208 30.0331 29.3999 30.4632C29.2089 30.835 28.9063 31.1376 28.5345 31.3285C28.1044 31.5495 27.5404 31.5495 26.4126 31.5495H13.5797C12.4518 31.5495 11.8879 31.5495 11.4577 31.3285C11.0859 31.1376 10.7833 30.835 10.5924 30.4632C10.3714 30.033 10.3714 29.4691 10.3714 28.3413ZM20.0018 18.075C23.1912 18.075 25.7766 15.4895 25.7766 12.3002C25.7766 9.11086 23.1912 6.52539 20.0018 6.52539C16.8125 6.52539 14.227 9.11086 14.227 12.3002C14.227 15.4895 16.8125 18.075 20.0018 18.075Z" fill="#717D91"/>
</svg>
