<svg width="40" height="40" viewBox="0 0 40 40" fill="none" xmlns="http://www.w3.org/2000/svg">
<rect width="40" height="40" rx="4" fill="#292B2F"/>
<path fill-rule="evenodd" clip-rule="evenodd" d="M18.1158 4H18.1812H21.8188H21.8842C24.0504 3.99999 25.767 3.99998 27.1506 4.11303C28.5656 4.22863 29.7628 4.46983 30.856 5.02684C32.6287 5.93007 34.0699 7.37132 34.9732 9.14401C35.5302 10.2372 35.7714 11.4344 35.887 12.8494C36 14.233 36 15.9495 36 18.1156V18.1157V18.1812V24.6027C36 27.6255 34.7992 30.5244 32.6618 32.6618C30.5244 34.7992 27.6255 36 24.6027 36H18.1812H18.1158H18.1156C15.9495 36 14.233 36 12.8494 35.887C11.4344 35.7714 10.2372 35.5302 9.14401 34.9732C7.37132 34.0699 5.93007 32.6287 5.02684 30.856C4.46983 29.7628 4.22863 28.5656 4.11303 27.1506C3.99998 25.767 3.99999 24.0504 4 21.8842V21.8188V18.1812V18.1158V18.1158C3.99999 15.9496 3.99998 14.233 4.11303 12.8494C4.22863 11.4344 4.46983 10.2372 5.02684 9.14401C5.93007 7.37132 7.37132 5.93007 9.14401 5.02684C10.2372 4.46983 11.4344 4.22863 12.8494 4.11303C14.233 3.99998 15.9496 3.99999 18.1158 4H18.1158ZM13.0916 7.07823C11.8607 7.17881 11.0986 7.36996 10.4947 7.67766C9.28178 8.29566 8.29566 9.28178 7.67766 10.4947C7.36996 11.0986 7.17881 11.8607 7.07823 13.0916C6.97624 14.3399 6.97509 15.9351 6.97509 18.1812V21.8188C6.97509 24.0649 6.97624 25.6601 7.07823 26.9084C7.17881 28.1393 7.36996 28.9014 7.67766 29.5053C8.29566 30.7182 9.28178 31.7043 10.4947 32.3223C11.0986 32.63 11.8607 32.8212 13.0916 32.9218C14.3399 33.0238 15.9351 33.0249 18.1812 33.0249H24.3181V32.1519V32.0915C24.3181 31.0321 24.3181 30.1478 24.3771 29.4254C24.4387 28.6719 24.5718 27.9645 24.9126 27.2956C25.4355 26.2693 26.2699 25.4349 27.2962 24.912C27.9652 24.5711 28.6726 24.438 29.426 24.3765C30.1484 24.3175 31.0327 24.3175 32.0921 24.3175H32.0922H32.1525H33.0249V18.1812C33.0249 15.9351 33.0238 14.3399 32.9218 13.0916C32.8212 11.8607 32.63 11.0986 32.3223 10.4947C31.7043 9.28178 30.7182 8.29566 29.5053 7.67766C28.9014 7.36996 28.1393 7.17881 26.9084 7.07823C25.6601 6.97624 24.0649 6.97509 21.8188 6.97509H18.1812C15.9351 6.97509 14.3399 6.97624 13.0916 7.07823ZM30.5581 30.5581C29.6317 31.4845 28.5117 32.1728 27.2932 32.5836V32.1519C27.2932 31.0165 27.2944 30.2545 27.3423 29.6676C27.3888 29.0982 27.4719 28.8259 27.5634 28.6463C27.8011 28.1798 28.1804 27.8005 28.6469 27.5628C28.8265 27.4713 29.0988 27.3882 29.6683 27.3417C30.2551 27.2937 31.0172 27.2926 32.1525 27.2926H32.5838C32.1731 28.5113 31.4847 29.6316 30.5581 30.5581ZM12.7432 11.2564C11.9216 11.2564 11.2556 11.9224 11.2556 12.7439C11.2556 13.5655 11.9216 14.2315 12.7432 14.2315H24.3532C25.1747 14.2315 25.8407 13.5655 25.8407 12.7439C25.8407 11.9224 25.1747 11.2564 24.3532 11.2564H12.7432ZM11.2556 18.5488C11.2556 17.7273 11.9216 17.0613 12.7432 17.0613H21.4507C22.2722 17.0613 22.9382 17.7273 22.9382 18.5488C22.9382 19.3704 22.2722 20.0364 21.4507 20.0364H12.7432C11.9216 20.0364 11.2556 19.3704 11.2556 18.5488ZM12.7432 22.8662C11.9216 22.8662 11.2556 23.5322 11.2556 24.3537C11.2556 25.1753 11.9216 25.8413 12.7432 25.8413H15.6457C16.4672 25.8413 17.1332 25.1753 17.1332 24.3537C17.1332 23.5322 16.4672 22.8662 15.6457 22.8662H12.7432Z" fill="#717D91"/>
</svg>
