<svg width="40" height="40" viewBox="0 0 40 40" fill="none" xmlns="http://www.w3.org/2000/svg">
<path fill-rule="evenodd" clip-rule="evenodd" d="M20 3.15789C10.6984 3.15789 3.15789 10.6984 3.15789 20C3.15789 29.3016 10.6984 36.8421 20 36.8421C29.3016 36.8421 36.8421 29.3016 36.8421 20C36.8421 10.6984 29.3016 3.15789 20 3.15789ZM0 20C0 8.9543 8.9543 0 20 0C31.0457 0 40 8.9543 40 20C40 31.0457 31.0457 40 20 40C8.9543 40 0 31.0457 0 20ZM17.5439 23.4206C15.7029 23.4206 14.2105 24.913 14.2105 26.7539C14.2105 27.2384 14.6033 27.6311 15.0877 27.6311H24.9123C25.3967 27.6311 25.7895 27.2384 25.7895 26.7539C25.7895 24.913 24.2971 23.4206 22.4561 23.4206H17.5439ZM11.0526 26.7539C11.0526 23.1689 13.9589 20.2627 17.5439 20.2627H22.4561C26.0411 20.2627 28.9474 23.1689 28.9474 26.7539C28.9474 28.9824 27.1408 30.789 24.9123 30.789H15.0877C12.8592 30.789 11.0526 28.9824 11.0526 26.7539ZM17.8927 12.6313C17.8927 11.4686 18.8352 10.5261 19.9979 10.5261C21.1607 10.5261 22.1032 11.4686 22.1032 12.6313C22.1032 13.794 21.1607 14.7366 19.9979 14.7366C18.8352 14.7366 17.8927 13.794 17.8927 12.6313ZM19.9979 7.36816C17.0912 7.36816 14.7348 9.72456 14.7348 12.6313C14.7348 15.5381 17.0912 17.8945 19.9979 17.8945C22.9047 17.8945 25.2611 15.5381 25.2611 12.6313C25.2611 9.72456 22.9047 7.36816 19.9979 7.36816Z" fill="#717D91"/>
</svg>
