<svg width="41" height="40" viewBox="0 0 41 40" fill="none" xmlns="http://www.w3.org/2000/svg">
<rect x="1" y="0.5" width="39" height="39" rx="3.5" stroke="#AFB7C7"/>
<path fill-rule="evenodd" clip-rule="evenodd" d="M18.6158 4H18.6812H22.3188H22.3842C24.5504 3.99999 26.267 3.99998 27.6506 4.11303C29.0656 4.22863 30.2628 4.46983 31.356 5.02684C33.1287 5.93007 34.5699 7.37132 35.4732 9.14401C36.0302 10.2372 36.2714 11.4344 36.387 12.8494C36.5 14.233 36.5 15.9495 36.5 18.1156V18.1157V18.1812V24.6027C36.5 27.6255 35.2992 30.5244 33.1618 32.6618C31.0244 34.7992 28.1255 36 25.1027 36H18.6812H18.6158H18.6156C16.4495 36 14.733 36 13.3494 35.887C11.9344 35.7714 10.7372 35.5302 9.64401 34.9732C7.87132 34.0699 6.43007 32.6287 5.52684 30.856C4.96983 29.7628 4.72863 28.5656 4.61303 27.1506C4.49998 25.767 4.49999 24.0504 4.5 21.8842V21.8188V18.1812V18.1158V18.1158C4.49999 15.9496 4.49998 14.233 4.61303 12.8494C4.72863 11.4344 4.96983 10.2372 5.52684 9.14401C6.43007 7.37132 7.87132 5.93007 9.64401 5.02684C10.7372 4.46983 11.9344 4.22863 13.3494 4.11303C14.733 3.99998 16.4496 3.99999 18.6158 4H18.6158ZM13.5916 7.07823C12.3607 7.17881 11.5986 7.36996 10.9947 7.67766C9.78178 8.29566 8.79566 9.28178 8.17766 10.4947C7.86996 11.0986 7.67881 11.8607 7.57823 13.0916C7.47624 14.3399 7.47509 15.9351 7.47509 18.1812V21.8188C7.47509 24.0649 7.47624 25.6601 7.57823 26.9084C7.67881 28.1393 7.86996 28.9014 8.17766 29.5053C8.79566 30.7182 9.78178 31.7043 10.9947 32.3223C11.5986 32.63 12.3607 32.8212 13.5916 32.9218C14.8399 33.0238 16.4351 33.0249 18.6812 33.0249H24.8181V32.1519V32.0915C24.8181 31.0321 24.8181 30.1478 24.8771 29.4254C24.9387 28.6719 25.0718 27.9645 25.4126 27.2956C25.9355 26.2693 26.7699 25.4349 27.7962 24.912C28.4652 24.5711 29.1726 24.438 29.926 24.3765C30.6484 24.3175 31.5327 24.3175 32.5921 24.3175H32.5922H32.6525H33.5249V18.1812C33.5249 15.9351 33.5238 14.3399 33.4218 13.0916C33.3212 11.8607 33.13 11.0986 32.8223 10.4947C32.2043 9.28178 31.2182 8.29566 30.0053 7.67766C29.4014 7.36996 28.6393 7.17881 27.4084 7.07823C26.1601 6.97624 24.5649 6.97509 22.3188 6.97509H18.6812C16.4351 6.97509 14.8399 6.97624 13.5916 7.07823ZM31.0581 30.5581C30.1317 31.4845 29.0117 32.1728 27.7932 32.5836V32.1519C27.7932 31.0165 27.7944 30.2545 27.8423 29.6676C27.8888 29.0982 27.9719 28.8259 28.0634 28.6463C28.3011 28.1798 28.6804 27.8005 29.1469 27.5628C29.3265 27.4713 29.5988 27.3882 30.1683 27.3417C30.7551 27.2937 31.5172 27.2926 32.6525 27.2926H33.0838C32.6731 28.5113 31.9847 29.6316 31.0581 30.5581ZM13.2432 11.2564C12.4216 11.2564 11.7556 11.9224 11.7556 12.7439C11.7556 13.5655 12.4216 14.2315 13.2432 14.2315H24.8532C25.6747 14.2315 26.3407 13.5655 26.3407 12.7439C26.3407 11.9224 25.6747 11.2564 24.8532 11.2564H13.2432ZM11.7556 18.5488C11.7556 17.7273 12.4216 17.0613 13.2432 17.0613H21.9507C22.7722 17.0613 23.4382 17.7273 23.4382 18.5488C23.4382 19.3704 22.7722 20.0364 21.9507 20.0364H13.2432C12.4216 20.0364 11.7556 19.3704 11.7556 18.5488ZM13.2432 22.8662C12.4216 22.8662 11.7556 23.5322 11.7556 24.3537C11.7556 25.1753 12.4216 25.8413 13.2432 25.8413H16.1457C16.9672 25.8413 17.6332 25.1753 17.6332 24.3537C17.6332 23.5322 16.9672 22.8662 16.1457 22.8662H13.2432Z" fill="#717D91"/>
</svg>
