<svg width="41" height="40" viewBox="0 0 41 40" fill="none" xmlns="http://www.w3.org/2000/svg">
<rect x="0.5" width="40" height="40" rx="20" fill="#292B2F"/>
<path fill-rule="evenodd" clip-rule="evenodd" d="M20.4919 4H20.4999H20.5079C20.7325 4 20.8529 4 20.956 4.00135C29.4932 4.11308 36.3868 11.0067 36.4985 19.5439C36.4999 19.647 36.4999 19.7676 36.4999 19.9924V19.9999V20.0075C36.4999 20.2323 36.4999 20.3528 36.4985 20.456C36.3868 28.9932 29.4932 35.8868 20.956 35.9985C20.8528 35.9999 20.7323 35.9999 20.5075 35.9999H20.4999H20.4924C20.2676 35.9999 20.147 35.9999 20.0439 35.9985C11.5067 35.8868 4.61308 28.9932 4.50135 20.456C4.5 20.3529 4.5 20.2325 4.5 20.0079V19.9999V19.9919C4.5 19.7674 4.5 19.647 4.50135 19.5439C4.61308 11.0067 11.5067 4.11308 20.0439 4.00135C20.147 4 20.2674 4 20.4919 4ZM12.8776 17.7124C14.1357 17.7124 15.1649 18.7417 15.1649 19.9997C15.1649 21.2577 14.1357 22.287 12.8776 22.287C11.6196 22.287 10.5903 21.2577 10.5903 19.9997C10.5903 18.7417 11.6196 17.7124 12.8776 17.7124ZM18.2121 19.9997C18.2121 21.2577 19.2413 22.287 20.4994 22.287C21.7574 22.287 22.7867 21.2577 22.7867 19.9997C22.7867 18.7417 21.7574 17.7124 20.4994 17.7124C19.2413 17.7124 18.2121 18.7417 18.2121 19.9997ZM28.125 22.287C26.867 22.287 25.8377 21.2577 25.8377 19.9997C25.8377 18.7417 26.867 17.7124 28.125 17.7124C29.383 17.7124 30.4123 18.7417 30.4123 19.9997C30.4123 21.2577 29.383 22.287 28.125 22.287Z" fill="#717D91"/>
</svg>
