<svg width="316" height="40" viewBox="0 0 316 40" fill="none" xmlns="http://www.w3.org/2000/svg">
<path d="M32.6506 14.562C36.3202 10.9166 37.5246 6.17936 35.3407 3.98093C33.1568 1.7825 28.4116 2.95544 24.742 6.60075C21.0724 10.2461 19.8681 14.9833 22.052 17.1818C24.2359 19.3802 28.981 18.2073 32.6506 14.562Z" fill="#1F80FF"/>
<path d="M31.3423 31.2929C32.9864 29.6367 32.1869 26.1773 29.5565 23.5661C26.9262 20.9549 23.461 20.1808 21.8168 21.837C20.1727 23.4933 20.9722 26.9527 23.6026 29.5639C26.2329 32.175 29.6981 32.9491 31.3423 31.2929Z" fill="#4AA147"/>
<path d="M17.243 17.2505C19.4269 15.0521 18.2225 10.3148 14.5529 6.66949C10.8834 3.02418 6.13819 1.85124 3.9543 4.04967C1.7704 6.2481 2.97478 10.9854 6.64435 14.6307C10.3139 18.276 15.0591 19.4489 17.243 17.2505Z" fill="#CF2C91"/>
<path d="M15.705 29.43C18.3354 26.8188 19.1349 23.3594 17.4907 21.7032C15.8466 20.0469 12.3814 20.8211 9.751 23.4322C7.12062 26.0434 6.32113 29.5028 7.96527 31.159C9.60942 32.8153 13.0746 32.0412 15.705 29.43Z" fill="#F58220"/>
<path d="M64.4629 30.6213C64.4566 31.1133 64.256 31.5829 63.9048 31.9275C63.5536 32.2722 63.0804 32.4639 62.5883 32.461C62.0948 32.4552 61.6229 32.2572 61.273 31.9091L53.3773 23.3364L50.5866 26.0076V30.3546C50.5866 30.9157 50.3637 31.4538 49.967 31.8505C49.5702 32.2473 49.0321 32.4702 48.471 32.4702C47.91 32.4702 47.3719 32.2473 46.9751 31.8505C46.5784 31.4538 46.3555 30.9157 46.3555 30.3546V5.89682C46.3555 5.33573 46.5784 4.79763 46.9751 4.40089C47.3719 4.00414 47.91 3.78125 48.471 3.78125C49.0321 3.78125 49.5702 4.00414 49.967 4.40089C50.3637 4.79763 50.5866 5.33573 50.5866 5.89682V21.013L59.5585 11.9988C59.9539 11.6407 60.4606 11.4296 60.9934 11.401C61.5009 11.401 61.9878 11.6025 62.3469 11.9612C62.7059 12.32 62.9079 12.8066 62.9084 13.3142C62.9069 13.8143 62.7223 14.2966 62.3896 14.67L55.9693 20.8511L63.9055 29.3042C64.2551 29.6543 64.4549 30.1266 64.4629 30.6213Z" fill="white"/>
<path d="M67.7812 5.50336C67.7976 4.94317 68.0317 4.41142 68.4337 4.02097C68.8357 3.63051 69.3741 3.41211 69.9345 3.41211C70.495 3.41211 71.0333 3.63051 71.4354 4.02097C71.8374 4.41142 72.0714 4.94317 72.0878 5.50336C72.0714 6.06355 71.8374 6.59531 71.4354 6.98576C71.0333 7.37621 70.495 7.59461 69.9345 7.59461C69.3741 7.59461 68.8357 7.37621 68.4337 6.98576C68.0317 6.59531 67.7976 6.06355 67.7812 5.50336ZM72.0492 13.5572V30.3456C72.0492 30.6234 71.9945 30.8985 71.8881 31.1552C71.7818 31.4119 71.626 31.6451 71.4295 31.8416C71.2331 32.038 70.9999 32.1938 70.7432 32.3001C70.4865 32.4065 70.2114 32.4612 69.9336 32.4612C69.6558 32.4612 69.3807 32.4065 69.124 32.3001C68.8673 32.1938 68.6341 32.038 68.4377 31.8416C68.2412 31.6451 68.0854 31.4119 67.9791 31.1552C67.8728 30.8985 67.818 30.6234 67.818 30.3456V13.5572C67.818 13.2794 67.8728 13.0043 67.9791 12.7476C68.0854 12.491 68.2412 12.2577 68.4377 12.0613C68.6341 11.8648 68.8673 11.709 69.124 11.6027C69.3807 11.4964 69.6558 11.4417 69.9336 11.4417C70.2114 11.4417 70.4865 11.4964 70.7432 11.6027C70.9999 11.709 71.2331 11.8648 71.4295 12.0613C71.626 12.2577 71.7818 12.491 71.8881 12.7476C71.9945 13.0043 72.0492 13.2794 72.0492 13.5572Z" fill="white"/>
<path d="M90.4172 14.2862C90.6564 14.6542 90.9691 15.0846 90.9691 15.7579C90.9691 16.755 90.2112 17.3547 89.2527 17.3547C88.6162 17.3547 88.0165 17.0751 87.4131 16.2767C86.6166 15.2796 85.4999 14.6027 83.8645 14.6027C81.8832 14.6063 80.6911 15.6034 80.6911 17.0457C80.6911 18.0428 81.243 18.9994 83.3623 19.5972L85.8347 20.2761C89.2251 21.1959 91.7767 22.708 91.7767 26.058C91.7767 30.245 87.8289 32.3587 83.6823 32.3587C80.2128 32.3587 77.7808 30.8428 76.7433 29.2074C76.5446 28.9296 75.9062 28.1312 75.9062 27.1838C75.9062 26.3468 76.425 25.4693 77.5398 25.4693C78.4597 25.4693 78.9361 26.0212 79.3353 26.6246C80.3324 28.3005 81.9678 28.8579 83.6823 28.8579C85.9948 28.8579 87.5897 27.9013 87.5897 26.3063C87.5897 25.1106 86.7527 24.2331 84.7585 23.6738L82.0837 22.9325C78.2205 21.8563 76.5409 19.783 76.5409 17.0714C76.5409 13.3223 79.9295 11.1699 83.7982 11.1699C86.6681 11.1773 89.1405 12.3326 90.4172 14.2862Z" fill="white"/>
<path d="M109.086 14.2862C109.325 14.6542 109.638 15.0846 109.638 15.7579C109.638 16.755 108.88 17.3547 107.923 17.3547C107.285 17.3547 106.687 17.0751 106.084 16.2767C105.285 15.2796 104.169 14.6027 102.533 14.6027C100.541 14.6027 99.3435 15.5997 99.3435 17.0346C99.3435 18.0317 99.8953 18.9883 102.016 19.5862L104.489 20.265C107.877 21.1848 110.429 22.697 110.429 26.0469C110.429 30.2339 106.481 32.3476 102.335 32.3476C98.8652 32.3476 96.4332 30.8318 95.3956 29.1964C95.1969 28.9186 94.5586 28.1202 94.5586 27.1728C94.5586 26.3358 95.0774 25.4583 96.194 25.4583C97.1138 25.4583 97.5903 26.0102 97.9877 26.6135C98.9847 28.2894 100.62 28.8468 102.335 28.8468C104.647 28.8468 106.242 27.8902 106.242 26.2953C106.242 25.0995 105.405 24.222 103.411 23.6628L100.751 22.9325C96.8876 21.8563 95.208 19.783 95.208 17.0714C95.208 13.3223 98.5966 11.1699 102.465 11.1699C105.339 11.1773 107.811 12.3326 109.086 14.2862Z" fill="white"/>
<path d="M127.775 6.1388C127.781 6.34482 127.745 6.54997 127.669 6.74158C127.593 6.93319 127.479 7.1072 127.333 7.25287C127.187 7.39853 127.013 7.51276 126.821 7.58851C126.629 7.66426 126.424 7.69991 126.218 7.69328C125.859 7.69328 125.343 7.53507 124.704 7.29592C124.152 7.05677 123.626 6.81762 122.83 6.81762C120.596 6.81762 119.886 8.49168 119.886 10.1289V11.4829H123.875C124.91 11.4829 125.628 12.1599 125.628 13.157C125.628 14.1945 124.91 14.8715 123.875 14.8715H119.879V30.3446C119.879 30.8998 119.658 31.4323 119.266 31.8249C118.873 32.2175 118.341 32.438 117.785 32.438C117.23 32.438 116.698 32.2175 116.305 31.8249C115.912 31.4323 115.692 30.8998 115.692 30.3446V14.8715H114.375C113.339 14.8715 112.66 14.1945 112.66 13.157C112.66 12.1599 113.339 11.4829 114.375 11.4829H115.692V9.96705C115.692 4.50337 119.719 3.22852 122.315 3.22852C124.11 3.22852 125.626 3.70682 126.702 4.46474C127.375 4.90257 127.775 5.42135 127.775 6.1388ZM134.073 5.85918V30.3041C134.073 30.8652 133.851 31.4033 133.454 31.8C133.057 32.1968 132.519 32.4197 131.958 32.4197C131.397 32.4197 130.859 32.1968 130.462 31.8C130.065 31.4033 129.842 30.8652 129.842 30.3041V5.85918C129.842 5.29809 130.065 4.75999 130.462 4.36325C130.859 3.9665 131.397 3.74361 131.958 3.74361C132.519 3.74361 133.057 3.9665 133.454 4.36325C133.851 4.75999 134.073 5.29809 134.073 5.85918Z" fill="white"/>
<path d="M158.975 22.0004C158.975 29.1381 153.033 32.6076 148.447 32.6076C143.861 32.6076 137.961 29.1381 137.961 22.0004C137.961 14.9031 143.862 11.3545 148.447 11.3545C153.031 11.3545 158.975 14.8976 158.975 22.0004ZM142.146 22.0004C142.146 26.5075 145.376 28.9394 148.447 28.9394C151.558 28.9394 154.788 26.5075 154.788 22.0004C154.788 17.4492 151.558 15.0098 148.447 15.0098C145.376 15.0098 142.146 17.4492 142.146 22.0004Z" fill="white"/>
<path d="M191.385 13.3542C191.385 13.6725 191.225 13.9521 191.105 14.3109L185.483 30.7C185.125 31.7358 184.367 32.295 183.489 32.295C182.569 32.295 181.854 31.7431 181.416 30.7L176.024 17.5412L170.601 30.7C170.204 31.7358 169.446 32.295 168.577 32.295C167.657 32.295 166.942 31.7431 166.583 30.7L160.959 14.3109C160.84 13.9521 160.68 13.6725 160.68 13.3542C160.677 13.0917 160.727 12.8313 160.827 12.5882C160.926 12.3452 161.073 12.1244 161.258 11.9387C161.444 11.753 161.665 11.6062 161.908 11.5069C162.151 11.4075 162.411 11.3576 162.674 11.3601C163.43 11.3601 164.228 11.8384 164.468 12.5154L168.85 26.0734L174.118 12.6754C174.252 12.2803 174.51 11.939 174.853 11.702C175.197 11.4651 175.607 11.3451 176.024 11.3601C176.944 11.3601 177.58 11.8384 177.939 12.6754L183.202 26.0734L187.597 12.5099C187.796 11.7924 188.633 11.3546 189.391 11.3546C189.654 11.3521 189.915 11.4022 190.158 11.5019C190.402 11.6016 190.623 11.7489 190.808 11.9351C190.994 12.1214 191.141 12.3428 191.24 12.5865C191.339 12.8302 191.388 13.0912 191.385 13.3542Z" fill="white"/>
<path d="M209.241 29.8178C211.028 29.8178 212.583 29.5588 213.904 29.0406C215.252 28.5224 216.366 27.784 217.247 26.8253C218.153 25.8667 218.827 24.7137 219.267 23.3665C219.734 21.9933 219.967 20.4517 219.967 18.7417V18.4308C219.967 16.8244 219.76 15.3605 219.345 14.0391C218.957 12.6919 218.322 11.5389 217.441 10.5803C216.586 9.59571 215.472 8.84435 214.099 8.32616C212.751 7.78207 211.119 7.51002 209.202 7.51002H205.432V29.8178H209.241ZM202.051 4.78956H209.396C211.78 4.78956 213.852 5.13933 215.614 5.83888C217.376 6.53843 218.84 7.49707 220.006 8.7148C221.172 9.93253 222.04 11.3705 222.61 13.0287C223.18 14.6869 223.465 16.4876 223.465 18.4308V18.7805C223.465 20.6978 223.18 22.4985 222.61 24.1826C222.066 25.8667 221.211 27.3306 220.045 28.5742C218.879 29.8178 217.402 30.8024 215.614 31.5279C213.852 32.2274 211.754 32.5772 209.318 32.5772H202.051V4.78956Z" fill="white"/>
<path d="M236.096 32.9269C234.645 32.9269 233.324 32.6808 232.132 32.1885C230.94 31.6963 229.904 31.0097 229.023 30.1288C228.142 29.2219 227.455 28.1337 226.963 26.8642C226.496 25.5946 226.263 24.1826 226.263 22.628V22.3171C226.263 20.7885 226.496 19.3894 226.963 18.1198C227.429 16.8244 228.077 15.7232 228.906 14.8164C229.761 13.8837 230.771 13.1712 231.937 12.6789C233.103 12.1607 234.386 11.9016 235.785 11.9016C236.951 11.9016 238.078 12.096 239.166 12.4846C240.28 12.8473 241.265 13.4303 242.12 14.2335C242.975 15.0366 243.648 16.086 244.141 17.3814C244.659 18.651 244.918 20.1926 244.918 22.0062V23.0555H229.606C229.683 25.3874 230.266 27.1751 231.354 28.4187C232.443 29.6365 234.036 30.2453 236.135 30.2453C239.322 30.2453 241.122 29.0665 241.537 26.7087H244.762C244.4 28.7556 243.441 30.3101 241.887 31.3724C240.332 32.4088 238.402 32.9269 236.096 32.9269ZM241.615 20.4517C241.459 18.353 240.863 16.8503 239.827 15.9435C238.816 15.0366 237.469 14.5832 235.785 14.5832C234.127 14.5832 232.766 15.1144 231.704 16.1767C230.668 17.213 230.007 18.638 229.722 20.4517H241.615Z" fill="white"/>
<path d="M255.254 32.9269C252.819 32.9269 250.901 32.3569 249.502 31.2169C248.129 30.051 247.391 28.4187 247.287 26.3201H250.435C250.565 27.5378 250.979 28.4965 251.679 29.196C252.404 29.8956 253.583 30.2453 255.215 30.2453C256.77 30.2453 257.897 29.9863 258.596 29.4681C259.296 28.924 259.646 28.1078 259.646 27.0197C259.646 25.9574 259.244 25.1931 258.441 24.7267C257.664 24.2603 256.485 23.8846 254.904 23.5996C253.583 23.3665 252.469 23.0944 251.562 22.7835C250.655 22.4467 249.93 22.0451 249.386 21.5787C248.842 21.1124 248.44 20.5553 248.181 19.9076C247.948 19.2598 247.831 18.4955 247.831 17.6146C247.831 16.6819 248.038 15.8657 248.453 15.1662C248.868 14.4407 249.399 13.8448 250.046 13.3785C250.72 12.8862 251.458 12.5235 252.262 12.2903C253.091 12.0312 253.907 11.9016 254.71 11.9016C255.617 11.9016 256.485 12.0053 257.314 12.2125C258.143 12.3939 258.881 12.7178 259.529 13.1841C260.203 13.6505 260.76 14.2594 261.2 15.0107C261.641 15.7621 261.926 16.6819 262.055 17.7701H258.946C258.713 16.656 258.26 15.8528 257.586 15.3605C256.938 14.8423 255.967 14.5832 254.671 14.5832C253.505 14.5832 252.573 14.8553 251.873 15.3994C251.173 15.9176 250.824 16.6171 250.824 17.498C250.824 17.9644 250.888 18.366 251.018 18.7028C251.173 19.0137 251.433 19.2987 251.795 19.5578C252.158 19.791 252.637 20.0112 253.233 20.2185C253.855 20.3999 254.632 20.5683 255.565 20.7237C256.601 20.931 257.56 21.1642 258.441 21.4233C259.322 21.6564 260.073 21.9933 260.695 22.4337C261.343 22.8483 261.835 23.4053 262.172 24.1049C262.535 24.7785 262.716 25.6594 262.716 26.7476C262.716 28.6131 262.094 30.1158 260.851 31.2558C259.607 32.3699 257.741 32.9269 255.254 32.9269Z" fill="white"/>
<path d="M266.61 12.2514H269.835V32.5772H266.61V12.2514ZM268.164 8.01525C267.568 8.01525 267.063 7.80798 266.649 7.39343C266.234 6.97889 266.027 6.47366 266.027 5.87774C266.027 5.28183 266.234 4.7766 266.649 4.36206C267.063 3.94751 267.568 3.74023 268.164 3.74023C268.76 3.74023 269.265 3.94751 269.68 4.36206C270.095 4.7766 270.302 5.28183 270.302 5.87774C270.302 6.47366 270.095 6.97889 269.68 7.39343C269.265 7.80798 268.76 8.01525 268.164 8.01525Z" fill="white"/>
<path d="M283.461 40.0002C281.958 40.0002 280.65 39.8318 279.536 39.4949C278.448 39.1581 277.528 38.7047 276.777 38.1347C276.051 37.5906 275.481 36.9299 275.067 36.1526C274.652 35.4013 274.38 34.5981 274.25 33.7431H277.554C278.02 36.1008 279.976 37.2797 283.422 37.2797C285.417 37.2797 286.998 36.7745 288.164 35.764C289.356 34.7795 289.951 33.199 289.951 31.0226V28.069C289.666 28.5612 289.278 29.0406 288.786 29.5069C288.319 29.9733 287.775 30.3878 287.153 30.7506C286.557 31.0874 285.91 31.3724 285.21 31.6056C284.51 31.8129 283.798 31.9165 283.073 31.9165C281.751 31.9165 280.52 31.6833 279.38 31.2169C278.24 30.7247 277.256 30.051 276.427 29.196C275.624 28.341 274.989 27.3306 274.522 26.1646C274.056 24.9728 273.823 23.6774 273.823 22.2783V22.0062C273.823 20.633 274.056 19.3376 274.522 18.1198C274.989 16.8762 275.637 15.801 276.466 14.8941C277.295 13.9614 278.292 13.236 279.458 12.7178C280.624 12.1737 281.907 11.9016 283.306 11.9016C285.016 11.9016 286.402 12.2644 287.464 12.9898C288.526 13.6894 289.356 14.5314 289.951 15.516V12.2514H293.177V31.2169C293.177 32.6938 292.931 33.9763 292.439 35.0645C291.946 36.1786 291.273 37.0983 290.418 37.8238C289.563 38.5492 288.539 39.0933 287.348 39.4561C286.182 39.8188 284.886 40.0002 283.461 40.0002ZM283.422 29.2349C284.355 29.2349 285.223 29.0794 286.026 28.7685C286.855 28.4317 287.568 27.9653 288.164 27.3694C288.76 26.7476 289.226 25.9962 289.563 25.1153C289.9 24.2085 290.068 23.1851 290.068 22.0451V21.773C290.068 19.493 289.485 17.7312 288.319 16.4876C287.179 15.218 285.612 14.5832 283.617 14.5832C282.606 14.5832 281.699 14.7646 280.896 15.1273C280.093 15.4901 279.419 15.9953 278.875 16.643C278.331 17.2648 277.904 18.0292 277.593 18.936C277.308 19.8169 277.165 20.7885 277.165 21.8508V22.1617C277.165 23.2758 277.334 24.2733 277.67 25.1542C278.007 26.0092 278.448 26.7476 278.992 27.3694C279.562 27.9653 280.223 28.4317 280.974 28.7685C281.751 29.0794 282.567 29.2349 283.422 29.2349Z" fill="white"/>
<path d="M298.605 12.2514H301.831V15.4771C302.297 14.5185 303.075 13.6894 304.163 12.9898C305.277 12.2644 306.676 11.9016 308.36 11.9016C309.397 11.9016 310.355 12.0571 311.236 12.368C312.117 12.653 312.868 13.1323 313.49 13.806C314.138 14.4537 314.63 15.2957 314.967 16.3321C315.33 17.3685 315.511 18.6251 315.511 20.1019V32.5772H312.285V19.8687C312.285 18.081 311.897 16.7726 311.119 15.9435C310.342 15.1144 309.137 14.6998 307.505 14.6998C306.754 14.6998 306.028 14.8164 305.329 15.0496C304.655 15.2828 304.059 15.6326 303.541 16.0989C303.023 16.5653 302.608 17.1482 302.297 17.8478C301.986 18.5473 301.831 19.3505 301.831 20.2574V32.5772H298.605V12.2514Z" fill="white"/>
</svg>
