<svg width="41" height="40" viewBox="0 0 41 40" fill="none" xmlns="http://www.w3.org/2000/svg">
<g clip-path="url(#clip0_1299_28567)">
<path d="M0.5 3.42857C0.5 1.53502 2.03502 0 3.92856 0H15.7381C17.6316 0 19.1666 1.53502 19.1666 3.42857V15.2381C19.1666 17.1316 17.6316 18.6667 15.7381 18.6667H3.92856C2.03502 18.6667 0.5 17.1316 0.5 15.2381V3.42857Z" fill="#D341A5"/>
<path fill-rule="evenodd" clip-rule="evenodd" d="M15.7381 2.85714H3.92856C3.61297 2.85714 3.35714 3.11298 3.35714 3.42857V15.2381C3.35714 15.5537 3.61297 15.8095 3.92856 15.8095H15.7381C16.0537 15.8095 16.3095 15.5537 16.3095 15.2381V3.42857C16.3095 3.11298 16.0537 2.85714 15.7381 2.85714ZM3.92856 0C2.03502 0 0.5 1.53502 0.5 3.42857V15.2381C0.5 17.1316 2.03502 18.6667 3.92856 18.6667H15.7381C17.6316 18.6667 19.1666 17.1316 19.1666 15.2381V3.42857C19.1666 1.53502 17.6316 0 15.7381 0H3.92856Z" fill="#D341A5"/>
<path d="M0.5 24.7619C0.5 22.8684 2.03502 21.3333 3.92856 21.3333H15.7381C17.6316 21.3333 19.1666 22.8684 19.1666 24.7619V36.5714C19.1666 38.465 17.6316 40 15.7381 40H3.92856C2.03502 40 0.5 38.465 0.5 36.5714V24.7619Z" fill="#D341A5"/>
<path fill-rule="evenodd" clip-rule="evenodd" d="M15.7381 24.1905H3.92856C3.61297 24.1905 3.35714 24.4463 3.35714 24.7619V36.5714C3.35714 36.887 3.61297 37.1429 3.92856 37.1429H15.7381C16.0537 37.1429 16.3095 36.887 16.3095 36.5714V24.7619C16.3095 24.4463 16.0537 24.1905 15.7381 24.1905ZM3.92856 21.3333C2.03502 21.3333 0.5 22.8684 0.5 24.7619V36.5714C0.5 38.465 2.03502 40 3.92856 40H15.7381C17.6316 40 19.1666 38.465 19.1666 36.5714V24.7619C19.1666 22.8684 17.6316 21.3333 15.7381 21.3333H3.92856Z" fill="#D341A5"/>
<path d="M21.8334 24.7619C21.8334 22.8684 23.3684 21.3333 25.2619 21.3333H37.0714C38.965 21.3333 40.5 22.8684 40.5 24.7619V36.5714C40.5 38.465 38.965 40 37.0714 40H25.2619C23.3684 40 21.8334 38.465 21.8334 36.5714V24.7619Z" fill="#D341A5"/>
<path fill-rule="evenodd" clip-rule="evenodd" d="M37.0714 24.1905H25.2619C24.9463 24.1905 24.6905 24.4463 24.6905 24.7619V36.5714C24.6905 36.887 24.9463 37.1429 25.2619 37.1429H37.0714C37.387 37.1429 37.6429 36.887 37.6429 36.5714V24.7619C37.6429 24.4463 37.387 24.1905 37.0714 24.1905ZM25.2619 21.3333C23.3684 21.3333 21.8334 22.8684 21.8334 24.7619V36.5714C21.8334 38.465 23.3684 40 25.2619 40H37.0714C38.965 40 40.5 38.465 40.5 36.5714V24.7619C40.5 22.8684 38.965 21.3333 37.0714 21.3333H25.2619Z" fill="#D341A5"/>
<path fill-rule="evenodd" clip-rule="evenodd" d="M31.2142 1.07143C32.2004 1.07143 32.9999 1.87092 32.9999 2.85714V15.7143C32.9999 16.7005 32.2004 17.5 31.2142 17.5C30.228 17.5 29.4285 16.7005 29.4285 15.7143V2.85714C29.4285 1.87092 30.228 1.07143 31.2142 1.07143Z" fill="#D341A5"/>
<path fill-rule="evenodd" clip-rule="evenodd" d="M23 9.28571C23 8.29949 23.7994 7.5 24.7857 7.5H37.6428C38.629 7.5 39.4285 8.29949 39.4285 9.28571C39.4285 10.2719 38.629 11.0714 37.6428 11.0714H24.7857C23.7994 11.0714 23 10.2719 23 9.28571Z" fill="#D341A5"/>
</g>
<defs>
<clipPath id="clip0_1299_28567">
<rect width="40" height="40" fill="white" transform="translate(0.5)"/>
</clipPath>
</defs>
</svg>
