<svg width="475" height="566" viewBox="0 0 475 566" fill="none" xmlns="http://www.w3.org/2000/svg">
<path d="M204.679 530V528.091L210.585 521.972C211.216 521.307 211.736 520.724 212.145 520.224C212.56 519.719 212.869 519.239 213.074 518.784C213.278 518.33 213.381 517.847 213.381 517.335C213.381 516.756 213.244 516.256 212.972 515.835C212.699 515.409 212.327 515.082 211.855 514.855C211.384 514.622 210.852 514.506 210.261 514.506C209.636 514.506 209.091 514.634 208.625 514.889C208.159 515.145 207.801 515.506 207.551 515.972C207.301 516.437 207.176 516.983 207.176 517.608H204.662C204.662 516.545 204.906 515.616 205.395 514.821C205.884 514.026 206.554 513.409 207.406 512.972C208.259 512.528 209.227 512.307 210.312 512.307C211.409 512.307 212.375 512.526 213.21 512.963C214.051 513.395 214.707 513.986 215.179 514.736C215.651 515.48 215.886 516.321 215.886 517.259C215.886 517.906 215.764 518.54 215.52 519.159C215.281 519.778 214.864 520.469 214.267 521.23C213.67 521.986 212.841 522.903 211.778 523.983L208.31 527.614V527.741H216.168V530H204.679ZM218.656 526.591V524.46L226.199 512.545H227.878V515.682H226.812L221.418 524.222V524.358H231.756V526.591H218.656ZM226.932 530V525.943L226.949 524.972V512.545H229.446V530H226.932ZM234.76 534.909V516.909H237.249V519.031H237.462C237.609 518.759 237.822 518.443 238.101 518.085C238.379 517.727 238.766 517.415 239.26 517.148C239.754 516.875 240.408 516.739 241.22 516.739C242.277 516.739 243.22 517.006 244.05 517.54C244.879 518.074 245.53 518.844 246.001 519.849C246.479 520.855 246.717 522.065 246.717 523.48C246.717 524.895 246.482 526.108 246.01 527.119C245.538 528.125 244.891 528.901 244.067 529.446C243.243 529.986 242.303 530.256 241.246 530.256C240.45 530.256 239.8 530.122 239.294 529.855C238.794 529.588 238.402 529.276 238.118 528.918C237.834 528.56 237.615 528.241 237.462 527.963H237.308V534.909H234.76ZM237.257 523.455C237.257 524.375 237.391 525.182 237.658 525.875C237.925 526.568 238.311 527.111 238.817 527.503C239.322 527.889 239.942 528.082 240.675 528.082C241.436 528.082 242.072 527.881 242.584 527.477C243.095 527.068 243.482 526.514 243.743 525.815C244.01 525.116 244.143 524.33 244.143 523.455C244.143 522.591 244.013 521.815 243.751 521.128C243.496 520.44 243.109 519.898 242.592 519.5C242.081 519.102 241.442 518.903 240.675 518.903C239.936 518.903 239.311 519.094 238.8 519.474C238.294 519.855 237.911 520.386 237.649 521.068C237.388 521.75 237.257 522.545 237.257 523.455ZM251.068 516.909L253.957 522.006L256.872 516.909H259.659L255.577 523.455L259.693 530H256.906L253.957 525.108L251.017 530H248.222L252.295 523.455L248.273 516.909H251.068Z" fill="#AFB7C7"/>
<path d="M32 475V495H432V475" stroke="#AFB7C7" stroke-width="2" stroke-linecap="square" stroke-linejoin="round"/>
<path d="M42.5 40.5V439.5" stroke="#717D91" stroke-linecap="square" stroke-linejoin="round"/>
<path d="M52.5 40.5V439.5" stroke="#717D91" stroke-linecap="square" stroke-linejoin="round"/>
<path d="M62.5 40.5V439.5" stroke="#717D91" stroke-linecap="square" stroke-linejoin="round"/>
<path d="M72.5 40.5V439.5" stroke="#717D91" stroke-linecap="square" stroke-linejoin="round"/>
<path d="M82.5 40.5V439.5" stroke="#717D91" stroke-linecap="square" stroke-linejoin="round"/>
<path d="M92.5 40.5V439.5" stroke="#717D91" stroke-linecap="square" stroke-linejoin="round"/>
<path d="M102.5 40.5V439.5" stroke="#717D91" stroke-linecap="square" stroke-linejoin="round"/>
<path d="M112.5 40.5V439.5" stroke="#717D91" stroke-linecap="square" stroke-linejoin="round"/>
<path d="M122.5 40.5V439.5" stroke="#717D91" stroke-linecap="square" stroke-linejoin="round"/>
<path d="M132.5 40.5V439.5" stroke="#717D91" stroke-linecap="square" stroke-linejoin="round"/>
<path d="M142.5 40.5V439.5" stroke="#717D91" stroke-linecap="square" stroke-linejoin="round"/>
<path d="M152.5 40.5V439.5" stroke="#717D91" stroke-linecap="square" stroke-linejoin="round"/>
<path d="M162.5 40.5V439.5" stroke="#717D91" stroke-linecap="square" stroke-linejoin="round"/>
<path d="M172.5 40.5V439.5" stroke="#717D91" stroke-linecap="square" stroke-linejoin="round"/>
<path d="M182.5 40.5V439.5" stroke="#717D91" stroke-linecap="square" stroke-linejoin="round"/>
<path d="M192.5 40.5V439.5" stroke="#717D91" stroke-linecap="square" stroke-linejoin="round"/>
<path d="M202.5 40.5V439.5" stroke="#717D91" stroke-linecap="square" stroke-linejoin="round"/>
<path d="M212.5 40.5V439.5" stroke="#717D91" stroke-linecap="square" stroke-linejoin="round"/>
<path d="M222.5 40.5V439.5" stroke="#717D91" stroke-linecap="square" stroke-linejoin="round"/>
<path d="M232.5 40.5V439.5" stroke="#717D91" stroke-linecap="square" stroke-linejoin="round"/>
<path d="M242.5 40.5V439.5" stroke="#717D91" stroke-linecap="square" stroke-linejoin="round"/>
<path d="M252.5 40.5V439.5" stroke="#717D91" stroke-linecap="square" stroke-linejoin="round"/>
<path d="M262.5 40.5V439.5" stroke="#717D91" stroke-linecap="square" stroke-linejoin="round"/>
<path d="M272.5 40.5V439.5" stroke="#717D91" stroke-linecap="square" stroke-linejoin="round"/>
<path d="M282.5 40.5V439.5" stroke="#717D91" stroke-linecap="square" stroke-linejoin="round"/>
<path d="M292.5 40.5V439.5" stroke="#717D91" stroke-linecap="square" stroke-linejoin="round"/>
<path d="M302.5 40.5V439.5" stroke="#717D91" stroke-linecap="square" stroke-linejoin="round"/>
<path d="M312.5 40.5V439.5" stroke="#717D91" stroke-linecap="square" stroke-linejoin="round"/>
<path d="M322.5 40.5V439.5" stroke="#717D91" stroke-linecap="square" stroke-linejoin="round"/>
<path d="M332.5 40.5V439.5" stroke="#717D91" stroke-linecap="square" stroke-linejoin="round"/>
<path d="M342.5 40.5V439.5" stroke="#717D91" stroke-linecap="square" stroke-linejoin="round"/>
<path d="M352.5 40.5V439.5" stroke="#717D91" stroke-linecap="square" stroke-linejoin="round"/>
<path d="M362.5 40.5V439.5" stroke="#717D91" stroke-linecap="square" stroke-linejoin="round"/>
<path d="M372.5 40.5V439.5" stroke="#717D91" stroke-linecap="square" stroke-linejoin="round"/>
<path d="M382.5 40.5V439.5" stroke="#717D91" stroke-linecap="square" stroke-linejoin="round"/>
<path d="M392.5 40.5V439.5" stroke="#717D91" stroke-linecap="square" stroke-linejoin="round"/>
<path d="M402.5 40.5V439.5" stroke="#717D91" stroke-linecap="square" stroke-linejoin="round"/>
<path d="M412.5 40.5V439.5" stroke="#717D91" stroke-linecap="square" stroke-linejoin="round"/>
<path d="M422.5 40.5V439.5" stroke="#717D91" stroke-linecap="square" stroke-linejoin="round"/>
<path d="M33 430H432" stroke="#717D91" stroke-linecap="square" stroke-linejoin="round"/>
<path d="M33 420H432" stroke="#717D91" stroke-linecap="square" stroke-linejoin="round"/>
<path d="M33 410H432" stroke="#717D91" stroke-linecap="square" stroke-linejoin="round"/>
<path d="M33 400H432" stroke="#717D91" stroke-linecap="square" stroke-linejoin="round"/>
<path d="M33 390H432" stroke="#717D91" stroke-linecap="square" stroke-linejoin="round"/>
<path d="M33 380H432" stroke="#717D91" stroke-linecap="square" stroke-linejoin="round"/>
<path d="M33 370H432" stroke="#717D91" stroke-linecap="square" stroke-linejoin="round"/>
<path d="M33 360H432" stroke="#717D91" stroke-linecap="square" stroke-linejoin="round"/>
<path d="M33 350H432" stroke="#717D91" stroke-linecap="square" stroke-linejoin="round"/>
<path d="M33 340H432" stroke="#717D91" stroke-linecap="square" stroke-linejoin="round"/>
<path d="M33 330H432" stroke="#717D91" stroke-linecap="square" stroke-linejoin="round"/>
<path d="M33 320H432" stroke="#717D91" stroke-linecap="square" stroke-linejoin="round"/>
<path d="M33 310H432" stroke="#717D91" stroke-linecap="square" stroke-linejoin="round"/>
<path d="M33 300H432" stroke="#717D91" stroke-linecap="square" stroke-linejoin="round"/>
<path d="M33 290H432" stroke="#717D91" stroke-linecap="square" stroke-linejoin="round"/>
<path d="M33 280H432" stroke="#717D91" stroke-linecap="square" stroke-linejoin="round"/>
<path d="M33 270H432" stroke="#717D91" stroke-linecap="square" stroke-linejoin="round"/>
<path d="M33 260H432" stroke="#717D91" stroke-linecap="square" stroke-linejoin="round"/>
<path d="M33 250L432 250" stroke="#717D91" stroke-linecap="square" stroke-linejoin="round"/>
<path d="M33 240L432 240" stroke="#717D91" stroke-linecap="square" stroke-linejoin="round"/>
<path d="M33 230L432 230" stroke="#717D91" stroke-linecap="square" stroke-linejoin="round"/>
<path d="M33 220L432 220" stroke="#717D91" stroke-linecap="square" stroke-linejoin="round"/>
<path d="M33 210L432 210" stroke="#717D91" stroke-linecap="square" stroke-linejoin="round"/>
<path d="M33 200L432 200" stroke="#717D91" stroke-linecap="square" stroke-linejoin="round"/>
<path d="M33 190L432 190" stroke="#717D91" stroke-linecap="square" stroke-linejoin="round"/>
<path d="M33 180L432 180" stroke="#717D91" stroke-linecap="square" stroke-linejoin="round"/>
<path d="M33 170L432 170" stroke="#717D91" stroke-linecap="square" stroke-linejoin="round"/>
<path d="M33 160L432 160" stroke="#717D91" stroke-linecap="square" stroke-linejoin="round"/>
<path d="M33 150L432 150" stroke="#717D91" stroke-linecap="square" stroke-linejoin="round"/>
<path d="M33 140L432 140" stroke="#717D91" stroke-linecap="square" stroke-linejoin="round"/>
<path d="M33 130L432 130" stroke="#717D91" stroke-linecap="square" stroke-linejoin="round"/>
<path d="M33 120L432 120" stroke="#717D91" stroke-linecap="square" stroke-linejoin="round"/>
<path d="M33 110L432 110" stroke="#717D91" stroke-linecap="square" stroke-linejoin="round"/>
<path d="M33 100L432 100" stroke="#717D91" stroke-linecap="square" stroke-linejoin="round"/>
<path d="M33 90L432 90" stroke="#717D91" stroke-linecap="square" stroke-linejoin="round"/>
<path d="M33 80L432 80" stroke="#717D91" stroke-linecap="square" stroke-linejoin="round"/>
<path d="M33 70L432 70" stroke="#717D91" stroke-linecap="square" stroke-linejoin="round"/>
<path d="M33 60L432 60" stroke="#717D91" stroke-linecap="square" stroke-linejoin="round"/>
<path d="M33 50L432 50" stroke="#717D91" stroke-linecap="square" stroke-linejoin="round"/>
</svg>
