<svg width="475" height="566" viewBox="0 0 475 566" fill="none" xmlns="http://www.w3.org/2000/svg">
<mask id="path-1-inside-1_1299_28438" fill="white">
<path d="M0 0H475V566H0V0Z"/>
</mask>
<path d="M1 566V0H-1V566H1Z" fill="#454A52" mask="url(#path-1-inside-1_1299_28438)"/>
<path d="M204.399 467V465.409L209.321 460.31C209.847 459.756 210.28 459.27 210.621 458.854C210.966 458.432 211.224 458.032 211.395 457.653C211.565 457.275 211.651 456.872 211.651 456.446C211.651 455.963 211.537 455.546 211.31 455.196C211.082 454.841 210.772 454.569 210.379 454.379C209.986 454.185 209.544 454.088 209.051 454.088C208.53 454.088 208.076 454.195 207.688 454.408C207.299 454.621 207.001 454.921 206.793 455.31C206.584 455.698 206.48 456.152 206.48 456.673H204.385C204.385 455.788 204.589 455.014 204.996 454.351C205.403 453.688 205.962 453.174 206.672 452.81C207.382 452.44 208.189 452.256 209.094 452.256C210.008 452.256 210.813 452.438 211.509 452.803C212.209 453.162 212.756 453.655 213.149 454.28C213.542 454.9 213.739 455.601 213.739 456.382C213.739 456.922 213.637 457.45 213.433 457.966C213.234 458.482 212.886 459.057 212.389 459.692C211.892 460.321 211.201 461.086 210.315 461.986L207.425 465.011V465.118H213.973V467H204.399ZM216.665 467V465.409L221.587 460.31C222.112 459.756 222.545 459.27 222.886 458.854C223.232 458.432 223.49 458.032 223.661 457.653C223.831 457.275 223.916 456.872 223.916 456.446C223.916 455.963 223.803 455.546 223.575 455.196C223.348 454.841 223.038 454.569 222.645 454.379C222.252 454.185 221.809 454.088 221.317 454.088C220.796 454.088 220.341 454.195 219.953 454.408C219.565 454.621 219.267 454.921 219.058 455.31C218.85 455.698 218.746 456.152 218.746 456.673H216.651C216.651 455.788 216.854 455.014 217.261 454.351C217.669 453.688 218.227 453.174 218.938 452.81C219.648 452.44 220.455 452.256 221.359 452.256C222.273 452.256 223.078 452.438 223.774 452.803C224.475 453.162 225.022 453.655 225.415 454.28C225.808 454.9 226.004 455.601 226.004 456.382C226.004 456.922 225.902 457.45 225.699 457.966C225.5 458.482 225.152 459.057 224.655 459.692C224.158 460.321 223.466 461.086 222.581 461.986L219.69 465.011V465.118H226.239V467H216.665ZM228.959 471.091V456.091H231.033V457.859H231.21C231.333 457.632 231.511 457.369 231.743 457.071C231.975 456.773 232.297 456.512 232.709 456.29C233.121 456.062 233.665 455.949 234.342 455.949C235.223 455.949 236.009 456.171 236.7 456.616C237.392 457.062 237.934 457.703 238.327 458.541C238.724 459.379 238.923 460.388 238.923 461.567C238.923 462.746 238.727 463.757 238.334 464.599C237.941 465.437 237.401 466.084 236.714 466.538C236.028 466.988 235.244 467.213 234.364 467.213C233.701 467.213 233.159 467.102 232.737 466.879C232.321 466.657 231.994 466.396 231.757 466.098C231.52 465.8 231.338 465.535 231.21 465.303H231.082V471.091H228.959ZM231.04 461.545C231.04 462.312 231.151 462.985 231.374 463.562C231.596 464.14 231.918 464.592 232.339 464.919C232.761 465.241 233.277 465.402 233.888 465.402C234.522 465.402 235.053 465.234 235.479 464.898C235.905 464.557 236.227 464.095 236.445 463.513C236.667 462.93 236.778 462.275 236.778 461.545C236.778 460.826 236.67 460.179 236.452 459.607C236.239 459.034 235.917 458.581 235.486 458.25C235.06 457.919 234.527 457.753 233.888 457.753C233.272 457.753 232.751 457.911 232.325 458.229C231.904 458.546 231.584 458.989 231.366 459.557C231.149 460.125 231.04 460.788 231.04 461.545ZM242.549 456.091L244.957 460.338L247.386 456.091H249.708L246.306 461.545L249.737 467H247.414L244.957 462.923L242.506 467H240.177L243.572 461.545L240.219 456.091H242.549Z" fill="#AFB7C7"/>
<path d="M196.531 512.276C196.455 511.603 196.143 511.082 195.594 510.713C195.045 510.339 194.353 510.152 193.52 510.152C192.923 510.152 192.407 510.247 191.972 510.436C191.536 510.621 191.197 510.876 190.956 511.203C190.719 511.525 190.601 511.892 190.601 512.304C190.601 512.65 190.681 512.948 190.842 513.199C191.008 513.45 191.223 513.661 191.489 513.831C191.759 513.997 192.047 514.136 192.355 514.25C192.663 514.359 192.959 514.449 193.243 514.52L194.663 514.889C195.127 515.003 195.603 515.157 196.091 515.351C196.579 515.545 197.031 515.801 197.447 516.118C197.864 516.435 198.2 516.828 198.456 517.297C198.716 517.766 198.847 518.327 198.847 518.98C198.847 519.804 198.634 520.536 198.207 521.175C197.786 521.814 197.173 522.318 196.368 522.688C195.568 523.057 194.599 523.241 193.463 523.241C192.374 523.241 191.432 523.069 190.636 522.723C189.841 522.377 189.218 521.887 188.768 521.253C188.319 520.614 188.07 519.856 188.023 518.98H190.224C190.267 519.506 190.438 519.944 190.736 520.294C191.039 520.64 191.425 520.898 191.893 521.068C192.367 521.234 192.885 521.317 193.449 521.317C194.069 521.317 194.621 521.22 195.104 521.026C195.591 520.827 195.975 520.552 196.254 520.202C196.534 519.847 196.673 519.432 196.673 518.959C196.673 518.528 196.55 518.175 196.304 517.901C196.063 517.626 195.733 517.399 195.317 517.219C194.905 517.039 194.438 516.88 193.918 516.743L192.199 516.274C191.034 515.957 190.111 515.491 189.429 514.875C188.752 514.259 188.413 513.445 188.413 512.432C188.413 511.594 188.641 510.862 189.095 510.237C189.55 509.612 190.165 509.127 190.942 508.781C191.718 508.431 192.594 508.256 193.57 508.256C194.554 508.256 195.423 508.429 196.176 508.774C196.934 509.12 197.53 509.596 197.966 510.202C198.402 510.803 198.629 511.494 198.648 512.276H196.531ZM204.473 523.241C203.782 523.241 203.157 523.114 202.598 522.858C202.04 522.598 201.597 522.221 201.27 521.729C200.948 521.236 200.787 520.633 200.787 519.918C200.787 519.302 200.906 518.795 201.142 518.398C201.379 518 201.699 517.685 202.101 517.453C202.504 517.221 202.953 517.046 203.451 516.928C203.948 516.809 204.454 516.719 204.971 516.658C205.624 516.582 206.154 516.52 206.561 516.473C206.969 516.421 207.265 516.338 207.449 516.224C207.634 516.111 207.726 515.926 207.726 515.67V515.621C207.726 515 207.551 514.52 207.201 514.179C206.855 513.838 206.339 513.668 205.652 513.668C204.937 513.668 204.374 513.826 203.962 514.143C203.555 514.456 203.273 514.804 203.117 515.188L201.121 514.733C201.358 514.07 201.703 513.535 202.158 513.128C202.617 512.716 203.145 512.418 203.742 512.233C204.338 512.044 204.966 511.949 205.624 511.949C206.06 511.949 206.521 512.001 207.009 512.105C207.501 512.205 207.961 512.389 208.387 512.659C208.818 512.929 209.17 513.315 209.445 513.817C209.72 514.314 209.857 514.96 209.857 515.756V523H207.783V521.509H207.698C207.56 521.783 207.355 522.053 207.08 522.318C206.805 522.583 206.453 522.804 206.022 522.979C205.591 523.154 205.075 523.241 204.473 523.241ZM204.935 521.537C205.522 521.537 206.024 521.421 206.441 521.189C206.862 520.957 207.182 520.654 207.4 520.28C207.622 519.901 207.733 519.496 207.733 519.065V517.659C207.658 517.735 207.511 517.806 207.293 517.872C207.08 517.934 206.836 517.988 206.561 518.036C206.287 518.078 206.019 518.118 205.759 518.156C205.498 518.189 205.281 518.218 205.105 518.241C204.694 518.294 204.317 518.381 203.976 518.504C203.64 518.627 203.37 518.805 203.167 519.037C202.968 519.264 202.868 519.567 202.868 519.946C202.868 520.472 203.062 520.869 203.451 521.139C203.839 521.404 204.334 521.537 204.935 521.537ZM217.877 512.091V513.795H211.712V512.091H217.877ZM213.403 523V510.827C213.403 510.145 213.552 509.579 213.85 509.129C214.148 508.675 214.544 508.336 215.036 508.114C215.529 507.886 216.064 507.773 216.641 507.773C217.067 507.773 217.432 507.808 217.735 507.879C218.038 507.946 218.263 508.007 218.41 508.064L217.913 509.783C217.813 509.754 217.685 509.721 217.529 509.683C217.373 509.641 217.183 509.619 216.961 509.619C216.445 509.619 216.076 509.747 215.853 510.003C215.635 510.259 215.526 510.628 215.526 511.111V523H213.403ZM224.34 523.22C223.265 523.22 222.34 522.991 221.563 522.531C220.791 522.067 220.195 521.416 219.773 520.578C219.357 519.735 219.148 518.748 219.148 517.616C219.148 516.499 219.357 515.514 219.773 514.662C220.195 513.81 220.782 513.144 221.535 512.666C222.292 512.188 223.178 511.949 224.191 511.949C224.807 511.949 225.403 512.051 225.981 512.254C226.558 512.458 227.077 512.777 227.536 513.213C227.996 513.649 228.358 514.214 228.623 514.911C228.888 515.602 229.021 516.442 229.021 517.432V518.185H220.349V516.594H226.94C226.94 516.035 226.826 515.54 226.599 515.109C226.371 514.674 226.052 514.33 225.64 514.08C225.233 513.829 224.754 513.703 224.205 513.703C223.609 513.703 223.088 513.85 222.643 514.143C222.202 514.432 221.862 514.811 221.62 515.28C221.383 515.744 221.265 516.248 221.265 516.793V518.036C221.265 518.765 221.393 519.385 221.648 519.896C221.909 520.408 222.271 520.798 222.735 521.068C223.199 521.333 223.741 521.466 224.362 521.466C224.764 521.466 225.131 521.409 225.462 521.295C225.794 521.177 226.08 521.002 226.322 520.77C226.563 520.538 226.748 520.251 226.876 519.911L228.886 520.273C228.725 520.865 228.436 521.383 228.019 521.828C227.607 522.268 227.089 522.612 226.464 522.858C225.844 523.099 225.136 523.22 224.34 523.22ZM239.844 523.241C239.153 523.241 238.528 523.114 237.969 522.858C237.411 522.598 236.968 522.221 236.641 521.729C236.319 521.236 236.158 520.633 236.158 519.918C236.158 519.302 236.277 518.795 236.513 518.398C236.75 518 237.07 517.685 237.472 517.453C237.875 517.221 238.325 517.046 238.822 516.928C239.319 516.809 239.826 516.719 240.342 516.658C240.995 516.582 241.525 516.52 241.933 516.473C242.34 516.421 242.636 516.338 242.82 516.224C243.005 516.111 243.097 515.926 243.097 515.67V515.621C243.097 515 242.922 514.52 242.572 514.179C242.226 513.838 241.71 513.668 241.023 513.668C240.308 513.668 239.745 513.826 239.333 514.143C238.926 514.456 238.644 514.804 238.488 515.188L236.492 514.733C236.729 514.07 237.075 513.535 237.529 513.128C237.988 512.716 238.516 512.418 239.113 512.233C239.71 512.044 240.337 511.949 240.995 511.949C241.431 511.949 241.892 512.001 242.38 512.105C242.872 512.205 243.332 512.389 243.758 512.659C244.189 512.929 244.541 513.315 244.816 513.817C245.091 514.314 245.228 514.96 245.228 515.756V523H243.154V521.509H243.069C242.932 521.783 242.726 522.053 242.451 522.318C242.176 522.583 241.824 522.804 241.393 522.979C240.962 523.154 240.446 523.241 239.844 523.241ZM240.306 521.537C240.893 521.537 241.395 521.421 241.812 521.189C242.233 520.957 242.553 520.654 242.771 520.28C242.993 519.901 243.104 519.496 243.104 519.065V517.659C243.029 517.735 242.882 517.806 242.664 517.872C242.451 517.934 242.207 517.988 241.933 518.036C241.658 518.078 241.39 518.118 241.13 518.156C240.87 518.189 240.652 518.218 240.477 518.241C240.065 518.294 239.688 518.381 239.347 518.504C239.011 518.627 238.741 518.805 238.538 519.037C238.339 519.264 238.239 519.567 238.239 519.946C238.239 520.472 238.433 520.869 238.822 521.139C239.21 521.404 239.705 521.537 240.306 521.537ZM248.056 523V512.091H250.109V513.824H250.223C250.422 513.237 250.772 512.775 251.274 512.439C251.78 512.098 252.353 511.928 252.993 511.928C253.125 511.928 253.281 511.932 253.461 511.942C253.646 511.951 253.79 511.963 253.895 511.977V514.009C253.809 513.985 253.658 513.959 253.44 513.93C253.222 513.897 253.004 513.881 252.787 513.881C252.285 513.881 251.837 513.987 251.444 514.2C251.056 514.409 250.748 514.7 250.521 515.074C250.294 515.443 250.18 515.865 250.18 516.338V523H248.056ZM260.043 523.22C258.969 523.22 258.043 522.991 257.266 522.531C256.495 522.067 255.898 521.416 255.477 520.578C255.06 519.735 254.852 518.748 254.852 517.616C254.852 516.499 255.06 515.514 255.477 514.662C255.898 513.81 256.485 513.144 257.238 512.666C257.996 512.188 258.881 511.949 259.894 511.949C260.51 511.949 261.106 512.051 261.684 512.254C262.262 512.458 262.78 512.777 263.239 513.213C263.699 513.649 264.061 514.214 264.326 514.911C264.591 515.602 264.724 516.442 264.724 517.432V518.185H256.052V516.594H262.643C262.643 516.035 262.529 515.54 262.302 515.109C262.075 514.674 261.755 514.33 261.343 514.08C260.936 513.829 260.458 513.703 259.908 513.703C259.312 513.703 258.791 513.85 258.346 514.143C257.906 514.432 257.565 514.811 257.323 515.28C257.086 515.744 256.968 516.248 256.968 516.793V518.036C256.968 518.765 257.096 519.385 257.352 519.896C257.612 520.408 257.974 520.798 258.438 521.068C258.902 521.333 259.444 521.466 260.065 521.466C260.467 521.466 260.834 521.409 261.165 521.295C261.497 521.177 261.783 521.002 262.025 520.77C262.266 520.538 262.451 520.251 262.579 519.911L264.589 520.273C264.428 520.865 264.139 521.383 263.722 521.828C263.31 522.268 262.792 522.612 262.167 522.858C261.547 523.099 260.839 523.22 260.043 523.22ZM270.255 523.241C269.563 523.241 268.938 523.114 268.38 522.858C267.821 522.598 267.378 522.221 267.051 521.729C266.73 521.236 266.569 520.633 266.569 519.918C266.569 519.302 266.687 518.795 266.924 518.398C267.16 518 267.48 517.685 267.882 517.453C268.285 517.221 268.735 517.046 269.232 516.928C269.729 516.809 270.236 516.719 270.752 516.658C271.405 516.582 271.935 516.52 272.343 516.473C272.75 516.421 273.046 516.338 273.23 516.224C273.415 516.111 273.507 515.926 273.507 515.67V515.621C273.507 515 273.332 514.52 272.982 514.179C272.636 513.838 272.12 513.668 271.434 513.668C270.719 513.668 270.155 513.826 269.743 514.143C269.336 514.456 269.054 514.804 268.898 515.188L266.902 514.733C267.139 514.07 267.485 513.535 267.939 513.128C268.399 512.716 268.926 512.418 269.523 512.233C270.12 512.044 270.747 511.949 271.405 511.949C271.841 511.949 272.302 512.001 272.79 512.105C273.283 512.205 273.742 512.389 274.168 512.659C274.599 512.929 274.952 513.315 275.226 513.817C275.501 514.314 275.638 514.96 275.638 515.756V523H273.564V521.509H273.479C273.342 521.783 273.136 522.053 272.861 522.318C272.587 522.583 272.234 522.804 271.803 522.979C271.372 523.154 270.856 523.241 270.255 523.241ZM270.716 521.537C271.303 521.537 271.805 521.421 272.222 521.189C272.643 520.957 272.963 520.654 273.181 520.28C273.403 519.901 273.515 519.496 273.515 519.065V517.659C273.439 517.735 273.292 517.806 273.074 517.872C272.861 517.934 272.617 517.988 272.343 518.036C272.068 518.078 271.801 518.118 271.54 518.156C271.28 518.189 271.062 518.218 270.887 518.241C270.475 518.294 270.098 518.381 269.757 518.504C269.421 518.627 269.151 518.805 268.948 519.037C268.749 519.264 268.65 519.567 268.65 519.946C268.65 520.472 268.844 520.869 269.232 521.139C269.62 521.404 270.115 521.537 270.716 521.537Z" fill="#AFB7C7"/>
<path d="M55.9176 449.455V464H53.7159V451.656H53.6307L50.1506 453.929V451.827L53.7798 449.455H55.9176ZM59.8807 468.091V453.091H61.9545V454.859H62.1321C62.2552 454.632 62.4328 454.369 62.6648 454.071C62.8968 453.773 63.2188 453.512 63.6307 453.29C64.0426 453.062 64.5871 452.949 65.2642 452.949C66.1449 452.949 66.9309 453.171 67.6222 453.616C68.3134 454.062 68.8556 454.703 69.2486 455.541C69.6463 456.379 69.8452 457.388 69.8452 458.567C69.8452 459.746 69.6487 460.757 69.2557 461.599C68.8627 462.437 68.3229 463.084 67.6364 463.538C66.9498 463.988 66.1662 464.213 65.2855 464.213C64.6226 464.213 64.0805 464.102 63.6591 463.879C63.2424 463.657 62.9157 463.396 62.679 463.098C62.4422 462.8 62.2599 462.535 62.1321 462.303H62.0043V468.091H59.8807ZM61.9616 458.545C61.9616 459.312 62.0729 459.985 62.2955 460.562C62.518 461.14 62.84 461.592 63.2614 461.919C63.6828 462.241 64.1989 462.402 64.8097 462.402C65.4441 462.402 65.9744 462.234 66.4006 461.898C66.8267 461.557 67.1487 461.095 67.3665 460.513C67.589 459.93 67.7003 459.275 67.7003 458.545C67.7003 457.826 67.5914 457.179 67.3736 456.607C67.1605 456.034 66.8385 455.581 66.4077 455.25C65.9815 454.919 65.4489 454.753 64.8097 454.753C64.1941 454.753 63.6733 454.911 63.2472 455.229C62.8258 455.546 62.5062 455.989 62.2884 456.557C62.0705 457.125 61.9616 457.788 61.9616 458.545ZM73.4709 453.091L75.8786 457.338L78.3075 453.091H80.63L77.228 458.545L80.6584 464H78.3359L75.8786 459.923L73.4283 464H71.0987L74.4936 458.545L71.1413 453.091H73.4709Z" fill="#AFB7C7"/>
<path d="M388.918 449.455V464H386.716V451.656H386.631L383.151 453.929V451.827L386.78 449.455H388.918ZM392.881 468.091V453.091H394.955V454.859H395.132C395.255 454.632 395.433 454.369 395.665 454.071C395.897 453.773 396.219 453.512 396.631 453.29C397.043 453.062 397.587 452.949 398.264 452.949C399.145 452.949 399.931 453.171 400.622 453.616C401.313 454.062 401.856 454.703 402.249 455.541C402.646 456.379 402.845 457.388 402.845 458.567C402.845 459.746 402.649 460.757 402.256 461.599C401.863 462.437 401.323 463.084 400.636 463.538C399.95 463.988 399.166 464.213 398.286 464.213C397.623 464.213 397.08 464.102 396.659 463.879C396.242 463.657 395.916 463.396 395.679 463.098C395.442 462.8 395.26 462.535 395.132 462.303H395.004V468.091H392.881ZM394.962 458.545C394.962 459.312 395.073 459.985 395.295 460.562C395.518 461.14 395.84 461.592 396.261 461.919C396.683 462.241 397.199 462.402 397.81 462.402C398.444 462.402 398.974 462.234 399.401 461.898C399.827 461.557 400.149 461.095 400.366 460.513C400.589 459.93 400.7 459.275 400.7 458.545C400.7 457.826 400.591 457.179 400.374 456.607C400.161 456.034 399.839 455.581 399.408 455.25C398.982 454.919 398.449 454.753 397.81 454.753C397.194 454.753 396.673 454.911 396.247 455.229C395.826 455.546 395.506 455.989 395.288 456.557C395.071 457.125 394.962 457.788 394.962 458.545ZM406.471 453.091L408.879 457.338L411.308 453.091H413.63L410.228 458.545L413.658 464H411.336L408.879 459.923L406.428 464H404.099L407.494 458.545L404.141 453.091H406.471Z" fill="#AFB7C7"/>
<g clip-path="url(#clip0_1299_28438)">
<rect opacity="0.6" x="89" y="69" width="288" height="287" stroke="#151617" stroke-width="2"/>
<rect x="75" y="55" width="316" height="316" stroke="#292B2F" stroke-width="30"/>
<path opacity="0.6" d="M60 386L406 40" stroke="#8B95A9" stroke-width="2" stroke-linecap="square" stroke-linejoin="round"/>
<path opacity="0.6" d="M406 386L60 40" stroke="#8B95A9" stroke-width="2" stroke-linecap="square" stroke-linejoin="round"/>
<circle opacity="0.6" cx="233" cy="212" r="143" stroke="#8B95A9" stroke-width="2"/>
</g>
<rect x="60" y="402" width="346" height="16" fill="#292B2F"/>
<rect x="86" y="402" width="294" height="16" fill="#717D91"/>
<path d="M86 403V441H380V403" stroke="#AFB7C7" stroke-width="2" stroke-linecap="square" stroke-linejoin="round"/>
<path d="M60 474V496H407V474" stroke="#AFB7C7" stroke-width="2" stroke-linecap="square" stroke-linejoin="round"/>
<defs>
<clipPath id="clip0_1299_28438">
<rect width="400" height="346" fill="white" transform="translate(32 40)"/>
</clipPath>
</defs>
</svg>
