<svg width="41" height="40" viewBox="0 0 41 40" fill="none" xmlns="http://www.w3.org/2000/svg">
<path fill-rule="evenodd" clip-rule="evenodd" d="M21.3935 3.17572C20.8128 2.97815 20.1872 2.97815 19.6065 3.17572C19.3651 3.25783 19.0695 3.42832 18.5847 3.85926C18.087 4.30167 17.4909 4.92413 16.6152 5.84101L6.04538 16.9079L8.62283 30.4012C8.89197 31.8102 9.07933 32.7861 9.28055 33.5427C9.47687 34.2809 9.66123 34.7065 9.87727 35.0305C10.3348 35.7168 10.9645 36.2573 11.6969 36.5924C12.0427 36.7507 12.4775 36.8565 13.2073 36.9133C13.9553 36.9715 14.9061 36.9725 16.2784 36.9725H24.7216C26.0939 36.9725 27.0447 36.9715 27.7927 36.9133C28.5225 36.8565 28.9573 36.7507 29.3031 36.5924C30.0355 36.2573 30.6653 35.7168 31.1228 35.0305C31.3388 34.7065 31.5232 34.2809 31.7195 33.5427C31.9207 32.7861 32.1081 31.8102 32.3772 30.4012L34.9546 16.9079L24.3848 5.84101C23.5091 4.92413 22.913 4.30167 22.4153 3.85926C21.9305 3.42832 21.6349 3.25783 21.3935 3.17572ZM0.92346 17.989L3.43795 15.3563C3.44883 15.3445 3.45991 15.3329 3.47117 15.3215L14.6128 3.656L14.6128 3.65598C15.4357 2.79434 16.1149 2.0832 16.7133 1.55125C17.3349 0.998735 17.9639 0.55116 18.7129 0.296357C19.8744 -0.0987857 21.1256 -0.0987857 22.2871 0.296357C23.0361 0.55116 23.6651 0.998735 24.2867 1.55125C24.8851 2.0832 25.5643 2.79433 26.3872 3.65596L26.3872 3.656L37.528 15.3207C37.5399 15.3327 37.5515 15.3448 37.5629 15.3572L40.0765 17.989C40.6412 18.5802 40.6412 19.5387 40.0765 20.1298C39.5119 20.721 38.5965 20.721 38.0319 20.1298L37.412 19.4808L35.2019 31.0511L35.2019 31.0512L35.2018 31.0515C34.946 32.3908 34.7385 33.4772 34.5051 34.3549C34.2635 35.2632 33.9695 36.0499 33.4938 36.7635C32.7313 37.9072 31.6818 38.808 30.4611 39.3666C29.6996 39.7151 28.9051 39.8626 28.007 39.9325C27.1393 40 26.081 40 24.7765 40H16.2236C14.9191 40 13.8607 40 12.993 39.9325C12.0949 39.8626 11.3005 39.7151 10.5389 39.3666C9.31826 38.808 8.26874 37.9072 7.50624 36.7635C7.03053 36.0499 6.73654 35.2632 6.49496 34.3549C6.26154 33.4772 6.05399 32.3906 5.79816 31.0512L3.58802 19.4808L2.96811 20.1298C2.40349 20.721 1.48807 20.721 0.92346 20.1298C0.358847 19.5387 0.358847 18.5802 0.92346 17.989ZM16.8865 20.8255C16.8865 18.7354 18.5047 17.041 20.5009 17.041C22.4972 17.041 24.1154 18.7354 24.1154 20.8255C24.1154 22.9155 22.4972 24.6099 20.5009 24.6099C18.5047 24.6099 16.8865 22.9155 16.8865 20.8255ZM20.5009 14.0135C16.9078 14.0135 13.9949 17.0633 13.9949 20.8255C13.9949 24.5876 16.9078 27.6374 20.5009 27.6374C24.0941 27.6374 27.007 24.5876 27.007 20.8255C27.007 17.0633 24.0941 14.0135 20.5009 14.0135Z" fill="#717D91"/>
</svg>
