<svg width="73" height="73" viewBox="0 0 73 73" fill="none" xmlns="http://www.w3.org/2000/svg">
<rect x="0.25" y="0.5" width="72" height="72" rx="36" fill="#DF4440"/>
<path fill-rule="evenodd" clip-rule="evenodd" d="M25.082 36.5002C25.082 30.6091 29.8577 25.8335 35.7487 25.8335C41.6397 25.8335 46.4154 30.6091 46.4154 36.5002C46.4154 42.3912 41.6397 47.1668 35.7487 47.1668C29.8577 47.1668 25.082 42.3912 25.082 36.5002ZM35.7487 23.8335C28.7531 23.8335 23.082 29.5046 23.082 36.5002C23.082 43.4958 28.7531 49.1668 35.7487 49.1668C42.7443 49.1668 48.4154 43.4958 48.4154 36.5002C48.4154 29.5046 42.7443 23.8335 35.7487 23.8335ZM32.9561 32.2931C32.5656 31.9026 31.9324 31.9026 31.5419 32.2931C31.1514 32.6837 31.1514 33.3168 31.5419 33.7074L34.3348 36.5002L31.5419 39.2931C31.1514 39.6837 31.1514 40.3168 31.5419 40.7074C31.9324 41.0979 32.5656 41.0979 32.9561 40.7074L35.749 37.9145L38.5419 40.7074C38.9324 41.0979 39.5656 41.0979 39.9561 40.7074C40.3467 40.3168 40.3467 39.6837 39.9561 39.2931L37.1632 36.5002L39.9561 33.7074C40.3467 33.3168 40.3467 32.6837 39.9561 32.2931C39.5656 31.9026 38.9324 31.9026 38.5419 32.2931L35.749 35.086L32.9561 32.2931Z" fill="white"/>
</svg>
