<svg width="73" height="73" viewBox="0 0 73 73" fill="none" xmlns="http://www.w3.org/2000/svg">
<rect x="0.75" y="0.5" width="72" height="72" rx="36" fill="#EEB209"/>
<path fill-rule="evenodd" clip-rule="evenodd" d="M38.0749 26.1621C37.5517 25.9258 36.9521 25.9258 36.4288 26.1621C36.2348 26.2497 35.9671 26.4683 35.5405 27.0892C35.1179 27.7043 34.6304 28.5728 33.9364 29.8121L27.4706 41.3582C26.8031 42.5501 26.3372 43.3842 26.0451 44.0399C25.7512 44.6997 25.704 45.0322 25.728 45.2422C25.792 45.8017 26.0889 46.3083 26.5459 46.6376C26.7173 46.7611 27.0306 46.8824 27.7498 46.9483C28.4647 47.0139 29.42 47.0149 30.7861 47.0149H43.7177C45.0838 47.0149 46.0391 47.0139 46.754 46.9483C47.4732 46.8824 47.7864 46.7611 47.9579 46.6376C48.4148 46.3083 48.7117 45.8017 48.7758 45.2422C48.7998 45.0322 48.7525 44.6997 48.4587 44.0399C48.1666 43.3842 47.7007 42.5501 47.0332 41.3582L40.5674 29.8121C39.8734 28.5728 39.3859 27.7043 38.9633 27.0892C38.5367 26.4683 38.2689 26.2497 38.0749 26.1621ZM35.6058 24.3393C36.6523 23.8667 37.8514 23.8667 38.898 24.3393C39.6043 24.6582 40.1289 25.2539 40.6117 25.9567C41.0925 26.6565 41.6242 27.6059 42.2871 28.7898L48.8032 40.4256C49.4399 41.5625 49.9517 42.4765 50.2856 43.2262C50.6222 43.9817 50.8488 44.7175 50.7628 45.4695C50.6348 46.5885 50.0409 47.6018 49.1271 48.2602C48.513 48.7027 47.7603 48.8644 46.9367 48.94C46.1194 49.0149 45.0719 49.0149 43.7689 49.0149H30.7348C29.4319 49.0149 28.3843 49.0149 27.5671 48.94C26.7435 48.8644 25.9907 48.7027 25.3767 48.2602C24.4628 47.6018 23.869 46.5885 23.741 45.4695C23.655 44.7175 23.8816 43.9817 24.2181 43.2262C24.552 42.4765 25.0639 41.5625 25.7005 40.4257L32.2166 28.7898C32.8796 27.6059 33.4113 26.6565 33.892 25.9567C34.3749 25.2539 34.8995 24.6582 35.6058 24.3393Z" fill="white"/>
<path fill-rule="evenodd" clip-rule="evenodd" d="M37.3967 32.8449C37.949 32.8449 38.3967 33.2926 38.3967 33.8449V38.5116C38.3967 39.0639 37.949 39.5116 37.3967 39.5116C36.8444 39.5116 36.3967 39.0639 36.3967 38.5116V33.8449C36.3967 33.2926 36.8444 32.8449 37.3967 32.8449Z" fill="white"/>
<path d="M38.5634 42.0116C38.5634 42.6559 38.0411 43.1782 37.3968 43.1782C36.7524 43.1782 36.2301 42.6559 36.2301 42.0116C36.2301 41.3672 36.7524 40.8449 37.3968 40.8449C38.0411 40.8449 38.5634 41.3672 38.5634 42.0116Z" fill="white"/>
</svg>
