<svg width="73" height="73" viewBox="0 0 73 73" fill="none" xmlns="http://www.w3.org/2000/svg">
<rect x="0.25" y="0.5" width="72" height="72" rx="36" fill="#0565FF"/>
<path fill-rule="evenodd" clip-rule="evenodd" d="M36.7487 25.8335C30.8577 25.8335 26.082 30.6091 26.082 36.5002C26.082 42.3912 30.8577 47.1668 36.7487 47.1668C42.6397 47.1668 47.4154 42.3912 47.4154 36.5002C47.4154 30.6091 42.6397 25.8335 36.7487 25.8335ZM24.082 36.5002C24.082 29.5046 29.7531 23.8335 36.7487 23.8335C43.7443 23.8335 49.4154 29.5046 49.4154 36.5002C49.4154 43.4958 43.7443 49.1668 36.7487 49.1668C29.7531 49.1668 24.082 43.4958 24.082 36.5002ZM36.748 34.3336C37.3003 34.3336 37.748 34.7813 37.748 35.3336V41.167C37.748 41.7192 37.3003 42.167 36.748 42.167C36.1958 42.167 35.748 41.7192 35.748 41.167V35.3336C35.748 34.7813 36.1958 34.3336 36.748 34.3336ZM36.7487 33.0003C37.393 33.0003 37.9154 32.478 37.9154 31.8337C37.9154 31.1893 37.393 30.667 36.7487 30.667C36.1044 30.667 35.582 31.1893 35.582 31.8337C35.582 32.478 36.1044 33.0003 36.7487 33.0003Z" fill="white"/>
</svg>
