<svg width="50" height="74" viewBox="0 0 50 74" fill="none" xmlns="http://www.w3.org/2000/svg">
<path fill-rule="evenodd" clip-rule="evenodd" d="M13.7828 1.88007e-07H36.2172C37.5465 -8.34657e-06 38.6063 -1.52325e-05 39.4618 0.0698823C40.3386 0.141525 41.0901 0.291638 41.7795 0.642877C42.8893 1.20837 43.7916 2.11069 44.3571 3.22053C44.7084 3.90988 44.8585 4.66138 44.9301 5.53824C45 6.39374 45 7.45344 45 8.78276V31.2172C45 32.5466 45 33.6063 44.9301 34.4618C44.8585 35.3386 44.7084 36.0901 44.3571 36.7795C43.7916 37.8893 42.8893 38.7916 41.7795 39.3571C41.0901 39.7084 40.3386 39.8585 39.4618 39.9301C38.6063 40 37.5466 40 36.2172 40H13.7828C12.4534 40 11.3937 40 10.5382 39.9301C9.66138 39.8585 8.90988 39.7084 8.22053 39.3571C7.11069 38.7916 6.20837 37.8893 5.64288 36.7795C5.29164 36.0901 5.14153 35.3386 5.06988 34.4618C4.99998 33.6063 4.99999 32.5465 5 31.2172V8.78279C4.99999 7.45346 4.99998 6.39375 5.06988 5.53824C5.14153 4.66138 5.29164 3.90988 5.64288 3.22053C6.20837 2.11069 7.11069 1.20837 8.22053 0.642877C8.90988 0.291638 9.66138 0.141525 10.5382 0.0698823C11.3937 -1.52325e-05 12.4535 -8.34657e-06 13.7828 1.88007e-07ZM10.7039 2.09703C9.95278 2.15839 9.49874 2.2743 9.1439 2.45509C8.41677 2.82559 7.82559 3.41677 7.45509 4.1439C7.2743 4.49874 7.15839 4.95278 7.09703 5.70387C7.03469 6.46683 7.0339 7.44343 7.0339 8.82712V31.1729C7.0339 32.5566 7.03469 33.5332 7.09703 34.2961C7.15839 35.0472 7.2743 35.5013 7.45509 35.8561C7.82559 36.5832 8.41677 37.1744 9.1439 37.5449C9.49874 37.7257 9.95278 37.8416 10.7039 37.903C11.4668 37.9653 12.4434 37.9661 13.8271 37.9661H36.1729C37.5566 37.9661 38.5332 37.9653 39.2961 37.903C40.0472 37.8416 40.5013 37.7257 40.8561 37.5449C41.5832 37.1744 42.1744 36.5832 42.5449 35.8561C42.7257 35.5013 42.8416 35.0472 42.903 34.2961C42.9653 33.5332 42.9661 32.5566 42.9661 31.1729V8.82712C42.9661 7.44343 42.9653 6.46683 42.903 5.70387C42.8416 4.95278 42.7257 4.49874 42.5449 4.1439C42.1744 3.41677 41.5832 2.82559 40.8561 2.45509C40.5013 2.2743 40.0472 2.15839 39.2961 2.09703C38.5332 2.03469 37.5566 2.0339 36.1729 2.0339H13.8271C12.4434 2.0339 11.4668 2.03469 10.7039 2.09703Z" fill="#717D91"/>
<path fill-rule="evenodd" clip-rule="evenodd" d="M25 11.3898C25.5616 11.3898 26.017 11.8451 26.017 12.4068V18.9831H32.5932C33.1549 18.9831 33.6102 19.4384 33.6102 20C33.6102 20.5616 33.1549 21.017 32.5932 21.017H26.017V27.5932C26.017 28.1549 25.5616 28.6102 25 28.6102C24.4384 28.6102 23.9831 28.1549 23.9831 27.5932V21.017H17.4068C16.8451 21.017 16.3898 20.5616 16.3898 20C16.3898 19.4384 16.8451 18.9831 17.4068 18.9831H23.9831V12.4068C23.9831 11.8451 24.4384 11.3898 25 11.3898Z" fill="#717D91"/>
<path d="M6.96259 57.0909V68H5.31131V58.7422H5.24739L2.6373 60.4467V58.87L5.35925 57.0909H6.96259ZM10.3634 68.1012C10.0722 68.1012 9.82182 67.9982 9.6123 67.7923C9.40278 67.5827 9.29802 67.3306 9.29802 67.0359C9.29802 66.7447 9.40278 66.4961 9.6123 66.2901C9.82182 66.0806 10.0722 65.9759 10.3634 65.9759C10.6546 65.9759 10.9049 66.0806 11.1144 66.2901C11.3239 66.4961 11.4287 66.7447 11.4287 67.0359C11.4287 67.2312 11.379 67.4105 11.2796 67.5739C11.1837 67.7337 11.0558 67.8615 10.896 67.9574C10.7362 68.0533 10.5587 68.1012 10.3634 68.1012ZM13.5497 68V66.8068L17.2412 62.9822C17.6353 62.5668 17.9603 62.2028 18.2159 61.8903C18.4752 61.5742 18.6687 61.2741 18.7965 60.9901C18.9244 60.706 18.9883 60.4041 18.9883 60.0845C18.9883 59.7223 18.9031 59.4098 18.7326 59.147C18.5622 58.8807 18.3296 58.6765 18.0348 58.5344C17.7401 58.3888 17.4081 58.3161 17.0387 58.3161C16.6481 58.3161 16.3072 58.396 16.016 58.5558C15.7248 58.7156 15.5011 58.9411 15.3448 59.2322C15.1886 59.5234 15.1105 59.8643 15.1105 60.255H13.5391C13.5391 59.5909 13.6918 59.0103 13.9972 58.5131C14.3026 58.016 14.7216 57.6307 15.2543 57.3572C15.787 57.0803 16.3924 56.9418 17.0707 56.9418C17.7561 56.9418 18.3598 57.0785 18.8818 57.3519C19.4073 57.6218 19.8175 57.9911 20.1122 58.4599C20.407 58.9251 20.5544 59.4506 20.5544 60.0366C20.5544 60.4414 20.478 60.8374 20.3253 61.2244C20.1762 61.6115 19.9152 62.043 19.5423 62.5188C19.1694 62.9911 18.651 63.5646 17.9869 64.2393L15.8189 66.5085V66.5884H20.7301V68H13.5497ZM26.3588 68.1491C25.6912 68.1491 25.0911 68.0213 24.5584 67.7656C24.0293 67.5064 23.6067 67.1513 23.2906 66.7003C22.9746 66.2493 22.8059 65.7344 22.7846 65.1555H24.3826C24.4217 65.6243 24.6294 66.0096 25.0058 66.3114C25.3823 66.6133 25.8332 66.7642 26.3588 66.7642C26.7779 66.7642 27.1489 66.6683 27.4721 66.4766C27.7988 66.2812 28.0545 66.0131 28.2391 65.6722C28.4274 65.3313 28.5215 64.9425 28.5215 64.5057C28.5215 64.0618 28.4256 63.6658 28.2338 63.3178C28.0421 62.9698 27.7775 62.6964 27.4401 62.4975C27.1063 62.2987 26.7228 62.1974 26.2896 62.1939C25.9593 62.1939 25.6273 62.2507 25.2935 62.3643C24.9597 62.478 24.6898 62.6271 24.4838 62.8118L22.9764 62.5881L23.5889 57.0909H29.5868V58.5025H24.9579L24.6117 61.5547H24.6756C24.8886 61.3487 25.171 61.1765 25.5225 61.038C25.8776 60.8995 26.2576 60.8303 26.6624 60.8303C27.3265 60.8303 27.9178 60.9883 28.4362 61.3043C28.9582 61.6204 29.3684 62.0518 29.6667 62.5987C29.9685 63.142 30.1177 63.767 30.1141 64.4737C30.1177 65.1804 29.9579 65.8107 29.6347 66.3647C29.3151 66.9187 28.8712 67.3555 28.3031 67.6751C27.7384 67.9911 27.0904 68.1491 26.3588 68.1491ZM32.09 71.0682V59.8182H33.6454V61.1445H33.7786C33.8709 60.9741 34.0041 60.777 34.1781 60.5533C34.3521 60.3295 34.5936 60.1342 34.9025 59.9673C35.2115 59.7969 35.6199 59.7116 36.1277 59.7116C36.7882 59.7116 37.3777 59.8786 37.8961 60.2124C38.4146 60.5462 38.8212 61.0273 39.116 61.6559C39.4142 62.2844 39.5634 63.0408 39.5634 63.9251C39.5634 64.8093 39.416 65.5675 39.1213 66.1996C38.8265 66.8281 38.4217 67.3129 37.9068 67.6538C37.3919 67.9911 36.8042 68.1598 36.1436 68.1598C35.6465 68.1598 35.2399 68.0763 34.9238 67.9094C34.6113 67.7425 34.3663 67.5472 34.1887 67.3235C34.0112 67.0998 33.8745 66.9009 33.7786 66.7269H33.6827V71.0682H32.09ZM33.6508 63.9091C33.6508 64.4844 33.7342 64.9886 33.9011 65.4219C34.068 65.8551 34.3095 66.1942 34.6255 66.4393C34.9416 66.6808 35.3287 66.8015 35.7868 66.8015C36.2626 66.8015 36.6603 66.6754 36.9799 66.4233C37.2995 66.1676 37.541 65.8214 37.7044 65.3846C37.8713 64.9478 37.9547 64.456 37.9547 63.9091C37.9547 63.3693 37.8731 62.8846 37.7097 62.4549C37.5499 62.0252 37.3084 61.6861 36.9853 61.4375C36.6657 61.1889 36.2662 61.0646 35.7868 61.0646C35.3251 61.0646 34.9345 61.1836 34.6149 61.4215C34.2988 61.6594 34.0591 61.9915 33.8958 62.4176C33.7324 62.8437 33.6508 63.3409 33.6508 63.9091ZM42.2917 59.8182L44.0974 63.0036L45.9192 59.8182H47.661L45.1095 63.9091L47.6823 68H45.9405L44.0974 64.9425L42.2597 68H40.5126L43.0587 63.9091L40.5445 59.8182H42.2917Z" fill="#AFB7C7"/>
</svg>
