<svg width="41" height="74" viewBox="0 0 41 74" fill="none" xmlns="http://www.w3.org/2000/svg">
<path fill-rule="evenodd" clip-rule="evenodd" d="M9.38789 3.09654e-07H31.6121C32.9214 -1.15953e-05 33.9774 -2.12897e-05 34.8326 0.0698478C35.7131 0.141787 36.4864 0.293775 37.202 0.658351C38.3385 1.23745 39.2626 2.1615 39.8417 3.29804C40.2062 4.01356 40.3582 4.78695 40.4302 5.66744C40.5 6.52259 40.5 7.5786 40.5 8.88786V31.1121C40.5 32.4214 40.5 33.4774 40.4302 34.3326C40.3582 35.2131 40.2062 35.9864 39.8417 36.702C39.2626 37.8385 38.3385 38.7626 37.202 39.3417C36.4864 39.7062 35.7131 39.8582 34.8326 39.9302C33.9774 40 32.9214 40 31.6121 40H9.38786C8.0786 40 7.02259 40 6.16744 39.9302C5.28695 39.8582 4.51356 39.7062 3.79804 39.3417C2.6615 38.7626 1.73745 37.8385 1.15835 36.702C0.793775 35.9864 0.641787 35.2131 0.569848 34.3326C0.499979 33.4774 0.499988 32.4214 0.5 31.1121V8.88789C0.499988 7.57862 0.499979 6.52259 0.569848 5.66744C0.641787 4.78695 0.793775 4.01356 1.15835 3.29804C1.73745 2.1615 2.6615 1.23745 3.79804 0.658351C4.51356 0.293775 5.28695 0.141787 6.16744 0.0698478C7.02259 -2.12897e-05 8.07862 -1.15953e-05 9.38789 3.09654e-07ZM6.36418 2.47793C5.63311 2.53766 5.21308 2.64901 4.89493 2.81112C4.21301 3.15858 3.65858 3.71301 3.31112 4.39493C3.14901 4.71308 3.03766 5.13311 2.97793 5.86418C2.91705 6.60936 2.91611 7.56652 2.91611 8.9396V31.0604C2.91611 32.4335 2.91705 33.3906 2.97793 34.1358C3.03766 34.8669 3.14901 35.2869 3.31112 35.6051C3.65858 36.287 4.21301 36.8414 4.89493 37.1889C5.21308 37.351 5.63311 37.4623 6.36418 37.5221C7.10936 37.583 8.06652 37.5839 9.4396 37.5839H31.5604C32.9335 37.5839 33.8906 37.583 34.6358 37.5221C35.3669 37.4623 35.7869 37.351 36.1051 37.1889C36.787 36.8414 37.3414 36.287 37.6889 35.6051C37.851 35.2869 37.9623 34.8669 38.0221 34.1358C38.083 33.3906 38.0839 32.4335 38.0839 31.0604V8.9396C38.0839 7.56652 38.083 6.60936 38.0221 5.86418C37.9623 5.13311 37.851 4.71308 37.6889 4.39493C37.3414 3.71301 36.787 3.15858 36.1051 2.81112C35.7869 2.64901 35.3669 2.53766 34.6358 2.47793C33.8906 2.41705 32.9335 2.41611 31.5604 2.41611H9.4396C8.06652 2.41611 7.10936 2.41705 6.36418 2.47793Z" fill="#717D91"/>
<path fill-rule="evenodd" clip-rule="evenodd" d="M20.5 11.2752C21.1672 11.2752 21.7081 11.816 21.7081 12.4832V18.7919H28.0168C28.684 18.7919 29.2248 19.3328 29.2248 20C29.2248 20.6672 28.684 21.2081 28.0168 21.2081H21.7081V27.5168C21.7081 28.184 21.1672 28.7248 20.5 28.7248C19.8328 28.7248 19.2919 28.184 19.2919 27.5168V21.2081H12.9832C12.316 21.2081 11.7752 20.6672 11.7752 20C11.7752 19.3328 12.316 18.7919 12.9832 18.7919H19.2919V12.4832C19.2919 11.816 19.8328 11.2752 20.5 11.2752Z" fill="#717D91"/>
<path d="M7.15459 57.0909V68H5.50331V58.7422H5.43939L2.8293 60.4467V58.87L5.55125 57.0909H7.15459ZM10.5554 68.1012C10.2642 68.1012 10.0138 67.9982 9.8043 67.7923C9.59478 67.5827 9.49002 67.3306 9.49002 67.0359C9.49002 66.7447 9.59478 66.4961 9.8043 66.2901C10.0138 66.0806 10.2642 65.9759 10.5554 65.9759C10.8466 65.9759 11.0969 66.0806 11.3064 66.2901C11.5159 66.4961 11.6207 66.7447 11.6207 67.0359C11.6207 67.2312 11.571 67.4105 11.4716 67.5739C11.3757 67.7337 11.2478 67.8615 11.088 67.9574C10.9282 68.0533 10.7507 68.1012 10.5554 68.1012ZM17.1668 68.1491C16.4992 68.1491 15.8991 68.0213 15.3664 67.7656C14.8373 67.5064 14.4147 67.1513 14.0986 66.7003C13.7826 66.2493 13.6139 65.7344 13.5926 65.1555H15.1906C15.2297 65.6243 15.4374 66.0096 15.8138 66.3114C16.1903 66.6133 16.6412 66.7642 17.1668 66.7642C17.5858 66.7642 17.9569 66.6683 18.2801 66.4766C18.6068 66.2812 18.8625 66.0131 19.0471 65.6722C19.2354 65.3313 19.3295 64.9425 19.3295 64.5057C19.3295 64.0618 19.2336 63.6658 19.0418 63.3178C18.8501 62.9698 18.5855 62.6964 18.2481 62.4975C17.9143 62.2987 17.5308 62.1974 17.0976 62.1939C16.7673 62.1939 16.4353 62.2507 16.1015 62.3643C15.7677 62.478 15.4978 62.6271 15.2918 62.8118L13.7844 62.5881L14.3969 57.0909H20.3948V58.5025H15.7659L15.4197 61.5547H15.4836C15.6966 61.3487 15.979 61.1765 16.3305 61.038C16.6856 60.8995 17.0656 60.8303 17.4704 60.8303C18.1345 60.8303 18.7258 60.9883 19.2442 61.3043C19.7662 61.6204 20.1764 62.0518 20.4747 62.5987C20.7765 63.142 20.9257 63.767 20.9221 64.4737C20.9257 65.1804 20.7659 65.8107 20.4427 66.3647C20.1231 66.9187 19.6792 67.3555 19.1111 67.6751C18.5464 67.9911 17.8983 68.1491 17.1668 68.1491ZM22.898 71.0682V59.8182H24.4534V61.1445H24.5866C24.6789 60.9741 24.8121 60.777 24.9861 60.5533C25.1601 60.3295 25.4016 60.1342 25.7105 59.9673C26.0195 59.7969 26.4279 59.7116 26.9357 59.7116C27.5962 59.7116 28.1857 59.8786 28.7041 60.2124C29.2226 60.5462 29.6292 61.0273 29.924 61.6559C30.2222 62.2844 30.3714 63.0408 30.3714 63.9251C30.3714 64.8093 30.224 65.5675 29.9293 66.1996C29.6345 66.8281 29.2297 67.3129 28.7148 67.6538C28.1999 67.9911 27.6122 68.1598 26.9517 68.1598C26.4545 68.1598 26.0479 68.0763 25.7318 67.9094C25.4193 67.7425 25.1743 67.5472 24.9967 67.3235C24.8192 67.0998 24.6825 66.9009 24.5866 66.7269H24.4907V71.0682H22.898ZM24.4588 63.9091C24.4588 64.4844 24.5422 64.9886 24.7091 65.4219C24.876 65.8551 25.1175 66.1942 25.4335 66.4393C25.7496 66.6808 26.1367 66.8015 26.5948 66.8015C27.0706 66.8015 27.4683 66.6754 27.7879 66.4233C28.1075 66.1676 28.349 65.8214 28.5124 65.3846C28.6793 64.9478 28.7627 64.456 28.7627 63.9091C28.7627 63.3693 28.6811 62.8846 28.5177 62.4549C28.3579 62.0252 28.1164 61.6861 27.7933 61.4375C27.4737 61.1889 27.0742 61.0646 26.5948 61.0646C26.1331 61.0646 25.7425 61.1836 25.4229 61.4215C25.1068 61.6594 24.8671 61.9915 24.7038 62.4176C24.5404 62.8437 24.4588 63.3409 24.4588 63.9091ZM33.0997 59.8182L34.9054 63.0036L36.7272 59.8182H38.469L35.9175 63.9091L38.4903 68H36.7485L34.9054 64.9425L33.0677 68H31.3206L33.8667 63.9091L31.3525 59.8182H33.0997Z" fill="#AFB7C7"/>
</svg>
