<svg width="41" height="74" viewBox="0 0 41 74" fill="none" xmlns="http://www.w3.org/2000/svg">
<path fill-rule="evenodd" clip-rule="evenodd" d="M9.17583 9.69756e-08H31.8242C33.1742 -5.38992e-06 34.2377 -9.896e-06 35.0936 0.0699177C35.9668 0.141258 36.6959 0.289458 37.3586 0.627086C38.4412 1.17869 39.3213 2.05885 39.8729 3.14142C40.2105 3.80406 40.3587 4.53323 40.4301 5.4064C40.5 6.26226 40.5 7.32578 40.5 8.67581V31.3242C40.5 32.6742 40.5 33.7377 40.4301 34.5936C40.3587 35.4668 40.2105 36.1959 39.8729 36.8586C39.3213 37.9412 38.4412 38.8213 37.3586 39.3729C36.6959 39.7105 35.9668 39.8587 35.0936 39.9301C34.2377 40 33.1742 40 31.8242 40H9.17581C7.82578 40 6.76227 40 5.9064 39.9301C5.03323 39.8587 4.30406 39.7105 3.64142 39.3729C2.55885 38.8213 1.67869 37.9412 1.12709 36.8586C0.789458 36.1959 0.641258 35.4668 0.569918 34.5936C0.49999 33.7377 0.499995 32.6742 0.5 31.3242V8.67583C0.499995 7.32579 0.49999 6.26227 0.569918 5.4064C0.641258 4.53323 0.789458 3.80406 1.12709 3.14142C1.67869 2.05885 2.55885 1.17869 3.64142 0.627086C4.30406 0.289458 5.03323 0.141258 5.9064 0.0699177C6.76227 -9.896e-06 7.82579 -5.38992e-06 9.17583 9.69756e-08ZM6.04026 1.70829C5.26874 1.77133 4.77999 1.89188 4.38771 2.09175C3.61444 2.48575 2.98575 3.11444 2.59175 3.88771C2.39188 4.27998 2.27133 4.76874 2.20829 5.54026C2.14448 6.32136 2.14384 7.31782 2.14384 8.71233V31.2877C2.14384 32.6822 2.14448 33.6786 2.20829 34.4597C2.27133 35.2313 2.39188 35.72 2.59175 36.1123C2.98575 36.8856 3.61444 37.5142 4.38771 37.9082C4.77998 38.1081 5.26874 38.2287 6.04026 38.2917C6.82136 38.3555 7.81782 38.3562 9.21233 38.3562H31.7877C33.1822 38.3562 34.1786 38.3555 34.9597 38.2917C35.7313 38.2287 36.22 38.1081 36.6123 37.9082C37.3856 37.5142 38.0142 36.8856 38.4082 36.1123C38.6081 35.72 38.7287 35.2313 38.7917 34.4597C38.8555 33.6786 38.8562 32.6822 38.8562 31.2877V8.71233C38.8562 7.31782 38.8555 6.32136 38.7917 5.54026C38.7287 4.76874 38.6081 4.27999 38.4082 3.88771C38.0142 3.11444 37.3856 2.48575 36.6123 2.09175C36.22 1.89188 35.7313 1.77133 34.9597 1.70829C34.1786 1.64448 33.1822 1.64384 31.7877 1.64384H9.21233C7.81782 1.64384 6.82136 1.64448 6.04026 1.70829Z" fill="#717D91"/>
<path fill-rule="evenodd" clip-rule="evenodd" d="M20.5 11.5068C20.9539 11.5068 21.3219 11.8748 21.3219 12.3288V19.1781H28.1712C28.6252 19.1781 28.9932 19.5461 28.9932 20C28.9932 20.4539 28.6252 20.8219 28.1712 20.8219H21.3219V27.6712C21.3219 28.1252 20.9539 28.4932 20.5 28.4932C20.0461 28.4932 19.6781 28.1252 19.6781 27.6712V20.8219H12.8288C12.3748 20.8219 12.0068 20.4539 12.0068 20C12.0068 19.5461 12.3748 19.1781 12.8288 19.1781H19.6781V12.3288C19.6781 11.8748 20.0461 11.5068 20.5 11.5068Z" fill="#717D91"/>
<path d="M13.5357 57.0909V68H11.8844V58.7422H11.8205L9.21037 60.4467V58.87L11.9323 57.0909H13.5357ZM16.517 71.0682V59.8182H18.0724V61.1445H18.2055C18.2979 60.9741 18.431 60.777 18.605 60.5533C18.779 60.3295 19.0205 60.1342 19.3295 59.9673C19.6384 59.7969 20.0468 59.7116 20.5546 59.7116C21.2151 59.7116 21.8046 59.8786 22.3231 60.2124C22.8415 60.5462 23.2481 61.0273 23.5429 61.6559C23.8412 62.2844 23.9903 63.0408 23.9903 63.9251C23.9903 64.8093 23.843 65.5675 23.5482 66.1996C23.2535 66.8281 22.8486 67.3129 22.3337 67.6538C21.8188 67.9911 21.2311 68.1598 20.5706 68.1598C20.0734 68.1598 19.6668 68.0763 19.3508 67.9094C19.0383 67.7425 18.7932 67.5472 18.6157 67.3235C18.4381 67.0998 18.3014 66.9009 18.2055 66.7269H18.1096V71.0682H16.517ZM18.0777 63.9091C18.0777 64.4844 18.1611 64.9886 18.328 65.4219C18.4949 65.8551 18.7364 66.1942 19.0525 66.4393C19.3685 66.6808 19.7556 66.8015 20.2137 66.8015C20.6895 66.8015 21.0873 66.6754 21.4069 66.4233C21.7265 66.1676 21.968 65.8214 22.1313 65.3846C22.2982 64.9478 22.3817 64.456 22.3817 63.9091C22.3817 63.3693 22.3 62.8846 22.1366 62.4549C21.9768 62.0252 21.7354 61.6861 21.4122 61.4375C21.0926 61.1889 20.6931 61.0646 20.2137 61.0646C19.752 61.0646 19.3614 61.1836 19.0418 61.4215C18.7258 61.6594 18.4861 61.9915 18.3227 62.4176C18.1594 62.8437 18.0777 63.3409 18.0777 63.9091ZM26.7186 59.8182L28.5244 63.0036L30.3461 59.8182H32.0879L29.5364 63.9091L32.1092 68H30.3674L28.5244 64.9425L26.6866 68H24.9395L27.4857 63.9091L24.9714 59.8182H26.7186Z" fill="#AFB7C7"/>
</svg>
