<svg width="41" height="74" viewBox="0 0 41 74" fill="none" xmlns="http://www.w3.org/2000/svg">
<path fill-rule="evenodd" clip-rule="evenodd" d="M9.59269 6.80987e-07H31.4073C32.6783 -1.94591e-05 33.7273 -3.60216e-05 34.5818 0.0697808C35.4694 0.142294 36.2852 0.297922 37.0515 0.688381C38.2399 1.2939 39.2061 2.26009 39.8116 3.44848C40.2021 4.2148 40.3577 5.03065 40.4302 5.91817C40.5 6.77268 40.5 7.82166 40.5 9.09265V30.9073C40.5 32.1783 40.5 33.2273 40.4302 34.0818C40.3577 34.9694 40.2021 35.7852 39.8116 36.5515C39.2061 37.7399 38.2399 38.7061 37.0515 39.3116C36.2852 39.7021 35.4694 39.8577 34.5818 39.9302C33.7273 40 32.6783 40 31.4073 40H9.59265C8.32166 40 7.27268 40 6.41817 39.9302C5.53065 39.8577 4.7148 39.7021 3.94848 39.3116C2.76009 38.7061 1.7939 37.7399 1.18838 36.5515C0.797922 35.7852 0.642294 34.9694 0.569781 34.0818C0.499964 33.2273 0.499981 32.1783 0.500001 30.9073V9.09269C0.499981 7.82168 0.499964 6.77269 0.569781 5.91817C0.642294 5.03065 0.797922 4.2148 1.18838 3.44848C1.7939 2.26009 2.76009 1.2939 3.94848 0.688381C4.7148 0.297922 5.53065 0.142294 6.41817 0.0697808C7.27269 -3.60216e-05 8.32168 -1.94591e-05 9.59269 6.80987e-07ZM6.67532 3.21719C5.98309 3.27375 5.62908 3.37626 5.38214 3.50209C4.78794 3.80484 4.30484 4.28794 4.00209 4.88214C3.87626 5.12908 3.77375 5.48309 3.71719 6.17533C3.65912 6.88599 3.6579 7.80541 3.6579 9.1579V30.8421C3.6579 32.1946 3.65912 33.114 3.71719 33.8247C3.77375 34.5169 3.87626 34.8709 4.00209 35.1179C4.30484 35.7121 4.78794 36.1952 5.38214 36.4979C5.62908 36.6237 5.98309 36.7263 6.67533 36.7828C7.38599 36.8409 8.30541 36.8421 9.6579 36.8421H31.3421C32.6946 36.8421 33.614 36.8409 34.3247 36.7828C35.0169 36.7263 35.3709 36.6237 35.6179 36.4979C36.2121 36.1952 36.6952 35.7121 36.9979 35.1179C37.1237 34.8709 37.2263 34.5169 37.2828 33.8247C37.3409 33.114 37.3421 32.1946 37.3421 30.8421V9.1579C37.3421 7.8054 37.3409 6.88599 37.2828 6.17532C37.2263 5.48309 37.1237 5.12908 36.9979 4.88214C36.6952 4.28794 36.2121 3.80484 35.6179 3.50209C35.3709 3.37626 35.0169 3.27375 34.3247 3.21719C33.614 3.15912 32.6946 3.1579 31.3421 3.1579H9.6579C8.3054 3.1579 7.38599 3.15912 6.67532 3.21719Z" fill="#717D91"/>
<path fill-rule="evenodd" clip-rule="evenodd" d="M20.5 11.0526C21.372 11.0526 22.0789 11.7596 22.0789 12.6316V18.4211H27.8684C28.7405 18.4211 29.4474 19.128 29.4474 20C29.4474 20.872 28.7405 21.5789 27.8684 21.5789H22.0789V27.3684C22.0789 28.2405 21.372 28.9474 20.5 28.9474C19.628 28.9474 18.9211 28.2405 18.9211 27.3684V21.5789H13.1316C12.2596 21.5789 11.5526 20.872 11.5526 20C11.5526 19.128 12.2596 18.4211 13.1316 18.4211H18.9211V12.6316C18.9211 11.7596 19.628 11.0526 20.5 11.0526Z" fill="#717D91"/>
<path d="M8.34212 68V66.8068L12.0335 62.9822C12.4277 62.5668 12.7526 62.2028 13.0083 61.8903C13.2675 61.5742 13.4611 61.2741 13.5889 60.9901C13.7168 60.706 13.7807 60.4041 13.7807 60.0845C13.7807 59.7223 13.6955 59.4098 13.525 59.147C13.3545 58.8807 13.1219 58.6765 12.8272 58.5344C12.5325 58.3888 12.2004 58.3161 11.8311 58.3161C11.4405 58.3161 11.0996 58.396 10.8084 58.5558C10.5172 58.7156 10.2935 58.9411 10.1372 59.2322C9.98097 59.5234 9.90284 59.8643 9.90284 60.255H8.33147C8.33147 59.5909 8.48416 59.0103 8.78956 58.5131C9.09496 58.016 9.51399 57.6307 10.0467 57.3572C10.5793 57.0803 11.1848 56.9418 11.8631 56.9418C12.5484 56.9418 13.1521 57.0785 13.6742 57.3519C14.1997 57.6218 14.6099 57.9911 14.9046 58.4599C15.1994 58.9251 15.3467 59.4506 15.3467 60.0366C15.3467 60.4414 15.2704 60.8374 15.1177 61.2244C14.9685 61.6115 14.7075 62.043 14.3347 62.5188C13.9618 62.9911 13.4433 63.5646 12.7793 64.2393L10.6113 66.5085V66.5884H15.5225V68H8.34212ZM17.5716 71.0682V59.8182H19.127V61.1445H19.2602C19.3525 60.9741 19.4857 60.777 19.6597 60.5533C19.8337 60.3295 20.0752 60.1342 20.3841 59.9673C20.6931 59.7969 21.1015 59.7116 21.6093 59.7116C22.2698 59.7116 22.8593 59.8786 23.3778 60.2124C23.8962 60.5462 24.3028 61.0273 24.5976 61.6559C24.8959 62.2844 25.045 63.0408 25.045 63.9251C25.045 64.8093 24.8976 65.5675 24.6029 66.1996C24.3082 66.8281 23.9033 67.3129 23.3884 67.6538C22.8735 67.9911 22.2858 68.1598 21.6253 68.1598C21.1281 68.1598 20.7215 68.0763 20.4055 67.9094C20.093 67.7425 19.8479 67.5472 19.6704 67.3235C19.4928 67.0998 19.3561 66.9009 19.2602 66.7269H19.1643V71.0682H17.5716ZM19.1324 63.9091C19.1324 64.4844 19.2158 64.9886 19.3827 65.4219C19.5496 65.8551 19.7911 66.1942 20.1072 66.4393C20.4232 66.6808 20.8103 66.8015 21.2684 66.8015C21.7442 66.8015 22.142 66.6754 22.4616 66.4233C22.7812 66.1676 23.0226 65.8214 23.186 65.3846C23.3529 64.9478 23.4363 64.456 23.4363 63.9091C23.4363 63.3693 23.3547 62.8846 23.1913 62.4549C23.0315 62.0252 22.79 61.6861 22.4669 61.4375C22.1473 61.1889 21.7478 61.0646 21.2684 61.0646C20.8067 61.0646 20.4161 61.1836 20.0965 61.4215C19.7805 61.6594 19.5407 61.9915 19.3774 62.4176C19.214 62.8437 19.1324 63.3409 19.1324 63.9091ZM27.7733 59.8182L29.579 63.0036L31.4008 59.8182H33.1426L30.5911 63.9091L33.1639 68H31.4221L29.579 64.9425L27.7413 68H25.9942L28.5403 63.9091L26.0261 59.8182H27.7733Z" fill="#AFB7C7"/>
</svg>
