<svg width="41" height="74" viewBox="0 0 41 74" fill="none" xmlns="http://www.w3.org/2000/svg">
<path fill-rule="evenodd" clip-rule="evenodd" d="M9.28278 1.88001e-07H31.7172C33.0465 -8.34658e-06 34.1063 -1.52325e-05 34.9618 0.0698823C35.8386 0.141525 36.5901 0.291638 37.2795 0.642877C38.3893 1.20837 39.2916 2.11069 39.8571 3.22053C40.2084 3.90988 40.3585 4.66138 40.4301 5.53824C40.5 6.39374 40.5 7.45344 40.5 8.78276V31.2172C40.5 32.5466 40.5 33.6063 40.4301 34.4618C40.3585 35.3386 40.2084 36.0901 39.8571 36.7795C39.2916 37.8893 38.3893 38.7916 37.2795 39.3571C36.5901 39.7084 35.8386 39.8585 34.9618 39.9301C34.1063 40 33.0466 40 31.7172 40H9.28276C7.95345 40 6.89374 40 6.03824 39.9301C5.16138 39.8585 4.40988 39.7084 3.72053 39.3571C2.61069 38.7916 1.70837 37.8893 1.14288 36.7795C0.791638 36.0901 0.641525 35.3386 0.569882 34.4618C0.499985 33.6063 0.499992 32.5465 0.5 31.2172V8.78279C0.499992 7.45346 0.499985 6.39375 0.569882 5.53824C0.641525 4.66138 0.791638 3.90988 1.14288 3.22053C1.70837 2.11069 2.61069 1.20837 3.72053 0.642877C4.40988 0.291638 5.16138 0.141525 6.03824 0.0698823C6.89375 -1.52325e-05 7.95346 -8.34658e-06 9.28278 1.88001e-07ZM6.20387 2.09703C5.45278 2.15839 4.99874 2.2743 4.6439 2.45509C3.91677 2.82559 3.32559 3.41677 2.95509 4.1439C2.7743 4.49874 2.65839 4.95278 2.59703 5.70387C2.53469 6.46683 2.5339 7.44343 2.5339 8.82712V31.1729C2.5339 32.5566 2.53469 33.5332 2.59703 34.2961C2.65839 35.0472 2.7743 35.5013 2.95509 35.8561C3.32559 36.5832 3.91677 37.1744 4.6439 37.5449C4.99874 37.7257 5.45278 37.8416 6.20387 37.903C6.96683 37.9653 7.94343 37.9661 9.32712 37.9661H31.6729C33.0566 37.9661 34.0332 37.9653 34.7961 37.903C35.5472 37.8416 36.0013 37.7257 36.3561 37.5449C37.0832 37.1744 37.6744 36.5832 38.0449 35.8561C38.2257 35.5013 38.3416 35.0472 38.403 34.2961C38.4653 33.5332 38.4661 32.5566 38.4661 31.1729V8.82712C38.4661 7.44343 38.4653 6.46683 38.403 5.70387C38.3416 4.95278 38.2257 4.49874 38.0449 4.1439C37.6744 3.41677 37.0832 2.82559 36.3561 2.45509C36.0013 2.2743 35.5472 2.15839 34.7961 2.09703C34.0332 2.03469 33.0566 2.0339 31.6729 2.0339H9.32712C7.94343 2.0339 6.96683 2.03469 6.20387 2.09703Z" fill="#717D91"/>
<path fill-rule="evenodd" clip-rule="evenodd" d="M2.04899 3.68063C1.51695 4.72481 1.51695 6.09172 1.51695 8.82553V31.1713C1.51695 33.9051 1.51695 35.272 2.04899 36.3162C2.51698 37.2347 3.26373 37.9814 4.18222 38.4494C5.2264 38.9815 6.59331 38.9815 9.32712 38.9815H31.6729C34.4067 38.9815 35.7736 38.9815 36.8178 38.4494C37.7363 37.9814 38.483 37.2347 38.951 36.3162C39.4831 35.272 39.4831 33.9051 39.4831 31.1713V8.82553C39.4831 6.09171 39.4831 4.72481 38.951 3.68063C38.483 2.76214 37.7363 2.01539 36.8178 1.5474C35.7736 1.01536 34.4067 1.01536 31.6729 1.01536H9.32712C6.5933 1.01536 5.2264 1.01536 4.18222 1.5474C3.26373 2.01539 2.51698 2.76214 2.04899 3.68063ZM21.5169 12.4052C21.5169 11.8435 21.0616 11.3882 20.5 11.3882C19.9384 11.3882 19.4831 11.8435 19.4831 12.4052V18.9815H12.9068C12.3451 18.9815 11.8898 19.4368 11.8898 19.9984C11.8898 20.5601 12.3451 21.0154 12.9068 21.0154H19.4831V27.5916C19.4831 28.1533 19.9384 28.6086 20.5 28.6086C21.0616 28.6086 21.5169 28.1533 21.5169 27.5916V21.0154H28.0932C28.6549 21.0154 29.1102 20.5601 29.1102 19.9984C29.1102 19.4368 28.6549 18.9815 28.0932 18.9815H21.5169V12.4052Z" fill="#717D91"/>
<path d="M5.69624 68V57.0909H9.69127C10.4654 57.0909 11.1064 57.2187 11.6142 57.4744C12.122 57.7266 12.502 58.0692 12.7541 58.5025C13.0063 58.9322 13.1323 59.4169 13.1323 59.9567C13.1323 60.4112 13.0489 60.7947 12.882 61.1072C12.7151 61.4162 12.4913 61.6648 12.2108 61.853C11.9338 62.0376 11.6284 62.1726 11.2946 62.2578V62.3643C11.6568 62.3821 12.0102 62.4993 12.3546 62.7159C12.7026 62.929 12.9903 63.2326 13.2175 63.6268C13.4448 64.021 13.5585 64.5004 13.5585 65.065C13.5585 65.6225 13.4271 66.1232 13.1643 66.5671C12.905 67.0075 12.5038 67.3572 11.9604 67.6165C11.4171 67.8722 10.7229 68 9.8777 68H5.69624ZM7.34219 66.5884H9.7179C10.5063 66.5884 11.0709 66.4357 11.4118 66.1303C11.7527 65.8249 11.9232 65.4432 11.9232 64.9851C11.9232 64.6406 11.8362 64.3246 11.6621 64.0369C11.4881 63.7493 11.2396 63.5202 10.9164 63.3498C10.5968 63.1793 10.2168 63.0941 9.77649 63.0941H7.34219V66.5884ZM7.34219 61.8104H9.54745C9.91676 61.8104 10.2488 61.7393 10.5435 61.5973C10.8418 61.4553 11.078 61.2564 11.252 61.0007C11.4295 60.7415 11.5183 60.4361 11.5183 60.0845C11.5183 59.6335 11.3603 59.2553 11.0443 58.9499C10.7282 58.6445 10.2435 58.4918 9.59006 58.4918H7.34219V61.8104ZM18.8382 68.1651C18.0712 68.1651 17.4018 67.9893 16.8301 67.6378C16.2583 67.2862 15.8144 66.7944 15.4984 66.1623C15.1823 65.5302 15.0243 64.7915 15.0243 63.9464C15.0243 63.0977 15.1823 62.3555 15.4984 61.7198C15.8144 61.0842 16.2583 60.5906 16.8301 60.239C17.4018 59.8874 18.0712 59.7116 18.8382 59.7116C19.6053 59.7116 20.2747 59.8874 20.8464 60.239C21.4181 60.5906 21.862 61.0842 22.1781 61.7198C22.4941 62.3555 22.6521 63.0977 22.6521 63.9464C22.6521 64.7915 22.4941 65.5302 22.1781 66.1623C21.862 66.7944 21.4181 67.2862 20.8464 67.6378C20.2747 67.9893 19.6053 68.1651 18.8382 68.1651ZM18.8436 66.8281C19.3407 66.8281 19.7526 66.6967 20.0794 66.4339C20.4061 66.1712 20.6475 65.8214 20.8038 65.3846C20.9636 64.9478 21.0435 64.4666 21.0435 63.9411C21.0435 63.419 20.9636 62.9396 20.8038 62.5028C20.6475 62.0625 20.4061 61.7092 20.0794 61.4428C19.7526 61.1765 19.3407 61.0433 18.8436 61.0433C18.3428 61.0433 17.9274 61.1765 17.5971 61.4428C17.2704 61.7092 17.0271 62.0625 16.8673 62.5028C16.7111 62.9396 16.633 63.419 16.633 63.9411C16.633 64.4666 16.7111 64.9478 16.8673 65.3846C17.0271 65.8214 17.2704 66.1712 17.5971 66.4339C17.9274 66.6967 18.3428 66.8281 18.8436 66.8281ZM26.0316 57.0909V68H24.4389V57.0909H26.0316ZM31.2461 68.1598C30.5856 68.1598 29.9961 67.9911 29.4777 67.6538C28.9628 67.3129 28.5579 66.8281 28.2632 66.1996C27.972 65.5675 27.8264 64.8093 27.8264 63.9251C27.8264 63.0408 27.9738 62.2844 28.2685 61.6559C28.5668 61.0273 28.9752 60.5462 29.4937 60.2124C30.0121 59.8786 30.5998 59.7116 31.2568 59.7116C31.7646 59.7116 32.173 59.7969 32.4819 59.9673C32.7944 60.1342 33.0359 60.3295 33.2064 60.5533C33.3804 60.777 33.5153 60.9741 33.6112 61.1445H33.7071V57.0909H35.2998V68H33.7444V66.7269H33.6112C33.5153 66.9009 33.3768 67.0998 33.1957 67.3235C33.0182 67.5472 32.7731 67.7425 32.4606 67.9094C32.1481 68.0763 31.7433 68.1598 31.2461 68.1598ZM31.5977 66.8015C32.0558 66.8015 32.4429 66.6808 32.7589 66.4393C33.0785 66.1942 33.32 65.8551 33.4834 65.4219C33.6503 64.9886 33.7337 64.4844 33.7337 63.9091C33.7337 63.3409 33.652 62.8437 33.4887 62.4176C33.3253 61.9915 33.0856 61.6594 32.7696 61.4215C32.4535 61.1836 32.0629 61.0646 31.5977 61.0646C31.1183 61.0646 30.7188 61.1889 30.3992 61.4375C30.0796 61.6861 29.8381 62.0252 29.6748 62.4549C29.515 62.8846 29.4351 63.3693 29.4351 63.9091C29.4351 64.456 29.5167 64.9478 29.6801 65.3846C29.8434 65.8214 30.0849 66.1676 30.4045 66.4233C30.7277 66.6754 31.1254 66.8015 31.5977 66.8015Z" fill="#AFB7C7"/>
</svg>
